<svg width="64" height="32" viewBox="0 0 64 32" fill="none" xmlns="http://www.w3.org/2000/svg">
<path fill-rule="evenodd" clip-rule="evenodd" d="M18.4268 23.7476H14.2817L11.1733 11.5402C11.0258 10.9787 10.7125 10.4823 10.2517 10.2483C9.10173 9.66031 7.83454 9.19236 6.45215 8.95635V8.48637H13.1297C14.0513 8.48637 14.7425 9.19236 14.8577 10.0123L16.4704 18.8179L20.6136 8.48637H24.6435L18.4268 23.7476ZM26.9468 23.7476H23.0321L26.2556 8.48637H30.1704L26.9468 23.7476ZM35.2369 12.7119C35.352 11.8899 36.0432 11.4199 36.8496 11.4199C38.1168 11.3019 39.4972 11.5379 40.6492 12.1239L41.3404 8.83807C40.1884 8.36809 38.9212 8.13208 37.7712 8.13208C33.9717 8.13208 31.2069 10.246 31.2069 13.1798C31.2069 15.4117 33.1653 16.5836 34.5477 17.2896C36.0432 17.9936 36.6192 18.4636 36.504 19.1675C36.504 20.2235 35.3521 20.6934 34.2021 20.6934C32.8197 20.6934 31.4373 20.3415 30.1721 19.7535L29.4809 23.0413C30.8633 23.6273 32.3589 23.8633 33.7413 23.8633C38.0016 23.9793 40.6492 21.8674 40.6492 18.6975C40.6492 14.7057 35.2369 14.4718 35.2369 12.7119ZM54.3474 23.7476L51.239 8.48637H47.9003C47.2091 8.48637 46.5179 8.95635 46.2875 9.66031L40.5316 23.7476H44.5615L45.3659 21.5177H50.3174L50.7782 23.7476H54.3474ZM48.4768 12.5945L49.6268 18.3462H46.4032L48.4768 12.5945Z" fill="#172B85"/>
</svg>
