<svg width="78" height="32" viewBox="0 0 78 32" fill="none" xmlns="http://www.w3.org/2000/svg">
<path d="M14.9091 15.9973L11.7749 17.8156L8.86377 22.8888L20.7315 15.9973H14.9091Z" fill="#8F4794"/>
<path d="M23.8657 10.8047L20.7315 12.623L17.8203 17.6962L29.688 10.8047H23.8657Z" fill="#E40646"/>
<path d="M20.7315 8.98453L17.8203 3.91138V14.3062V17.6944V28.0892L20.7315 23.016V8.98453Z" fill="#F9B429"/>
<path d="M17.8203 3.91138L20.7315 8.98453L23.8657 10.8029H29.688L17.8203 3.91138Z" fill="#EF8019"/>
<path d="M17.8203 14.3057V28.0886L20.7315 23.0155V19.3788L17.8203 14.3057Z" fill="#78B72A"/>
<path d="M23.8657 21.1963L20.7315 23.0146L17.8203 28.0878L29.688 21.1963H23.8657Z" fill="#00853F"/>
<path d="M8.86377 9.11108V22.888L11.7749 17.8209V14.1782L8.86377 9.11108Z" fill="#5B57A2"/>
<path d="M17.8203 14.3055L17.8263 14.3115L8.86377 9.11108L11.7749 14.1782L23.8657 21.1969H29.688L17.8203 14.3055Z" fill="#0698D6"/>
<path d="M64.2007 18.2556H64.5744V18.892H64.924C65.0867 18.892 65.2193 18.9102 65.3278 18.9526C65.4363 18.9951 65.5207 19.0496 65.5809 19.1163C65.6472 19.183 65.6894 19.2618 65.7196 19.3527C65.7437 19.4436 65.7617 19.5345 65.7617 19.6254C65.7617 19.7224 65.7497 19.8133 65.7196 19.9042C65.6894 19.9952 65.6412 20.0739 65.5749 20.1467C65.5086 20.2194 65.4182 20.274 65.3037 20.3164C65.1892 20.3588 65.0505 20.3831 64.8878 20.3831H64.2067V18.2556H64.2007ZM64.5744 19.2436V20.0255H64.8456C65.0324 20.0255 65.1651 19.9952 65.2434 19.9285C65.3218 19.8618 65.3579 19.7648 65.3579 19.6375C65.3579 19.5103 65.3218 19.4133 65.2434 19.3466C65.1651 19.2799 65.0325 19.2496 64.8516 19.2496H64.5744V19.2436ZM66.1595 18.2556H66.5332V20.377H66.1595V18.2556Z" fill="#1D1346"/>
<path d="M68.3351 19.2799L69.1368 20.377H68.6787L68.0579 19.5163L67.431 20.377H66.9971L67.7927 19.2981L67.0393 18.2556H67.4973L68.0699 19.0557L68.6546 18.2556H69.0885L68.3351 19.2799Z" fill="#1D1346"/>
<path d="M35.6615 20.0751C35.5711 20.1903 35.4505 20.2812 35.3119 20.3418C35.1672 20.4024 35.0166 20.4327 34.8538 20.4327C34.6851 20.4327 34.5344 20.4085 34.3958 20.3539C34.2571 20.2994 34.1366 20.2266 34.0401 20.1297C33.9377 20.0327 33.8654 19.9175 33.8051 19.7781C33.7508 19.6387 33.7207 19.4872 33.7207 19.3235C33.7207 19.172 33.7448 19.0265 33.7991 18.8871C33.8533 18.7538 33.9256 18.6326 34.0221 18.5356C34.1185 18.4386 34.233 18.3598 34.3596 18.2992C34.4922 18.2386 34.6308 18.2144 34.7875 18.2144C34.9563 18.2144 35.113 18.2386 35.2516 18.281C35.3963 18.3235 35.5168 18.3962 35.6133 18.4932L35.4385 18.7902C35.3481 18.7114 35.2516 18.6508 35.1492 18.6205C35.0467 18.5901 34.9442 18.572 34.8297 18.572C34.7333 18.572 34.6429 18.5901 34.5585 18.6265C34.4681 18.6629 34.3958 18.7114 34.3234 18.778C34.2571 18.8447 34.2029 18.9235 34.1667 19.0144C34.1306 19.1053 34.1064 19.2084 34.1064 19.3235C34.1064 19.4387 34.1245 19.5417 34.1667 19.6387C34.2089 19.7296 34.2632 19.8084 34.3295 19.8751C34.3958 19.9418 34.4801 19.9903 34.5705 20.0266C34.661 20.063 34.7634 20.0812 34.8659 20.0812C34.9925 20.0812 35.107 20.0569 35.2094 20.0084C35.3119 19.96 35.3963 19.8933 35.4686 19.8084L35.6615 20.0751Z" fill="#1D1346"/>
<path d="M36.1494 20.377V18.2556H36.5231V19.8376L37.7466 18.2556H38.1203V20.377H37.7466V18.7951L36.5291 20.377H36.1494Z" fill="#1D1346"/>
<path d="M40.6039 20.0751C40.5135 20.1903 40.3929 20.2812 40.2543 20.3418C40.1096 20.4024 39.959 20.4327 39.7962 20.4327C39.6275 20.4327 39.4768 20.4085 39.3381 20.3539C39.1995 20.2994 39.079 20.2266 38.9825 20.1297C38.8861 20.0327 38.8077 19.9175 38.7475 19.7781C38.6932 19.6387 38.6631 19.4872 38.6631 19.3235C38.6631 19.172 38.6872 19.0265 38.7414 18.8871C38.7957 18.7538 38.868 18.6326 38.9644 18.5356C39.0609 18.4386 39.1754 18.3598 39.302 18.2992C39.4346 18.2386 39.5732 18.2144 39.7299 18.2144C39.8987 18.2144 40.0554 18.2386 40.194 18.281C40.3387 18.3235 40.4592 18.3962 40.5557 18.4932L40.3809 18.7902C40.2905 18.7114 40.194 18.6508 40.0915 18.6205C39.9891 18.5901 39.8866 18.572 39.7721 18.572C39.6757 18.572 39.5853 18.5901 39.5009 18.6265C39.4105 18.6629 39.3381 18.7114 39.2658 18.778C39.1995 18.8447 39.1453 18.9235 39.1091 19.0144C39.0729 19.1053 39.0488 19.2084 39.0488 19.3235C39.0488 19.4387 39.0669 19.5417 39.1091 19.6387C39.1513 19.7296 39.2055 19.8084 39.2718 19.8751C39.3381 19.9418 39.4225 19.9903 39.5129 20.0266C39.6033 20.063 39.7058 20.0812 39.8083 20.0812C39.9348 20.0812 40.0494 20.0569 40.1518 20.0084C40.2543 19.96 40.3387 19.8933 40.411 19.8084L40.6039 20.0751Z" fill="#1D1346"/>
<path d="M40.7964 18.2556H42.7191V18.6314H41.9416V20.377H41.5679V18.6314H40.7964V18.2556Z" fill="#1D1346"/>
<path d="M44.8468 20.1468C44.7444 20.2438 44.6178 20.3105 44.4792 20.359C44.3345 20.4075 44.1959 20.4256 44.0573 20.4256C43.8825 20.4256 43.7318 20.4014 43.5932 20.3469C43.4545 20.2923 43.334 20.2196 43.2376 20.1226C43.1411 20.0256 43.0628 19.9105 43.0085 19.771C42.9543 19.6316 42.9302 19.4801 42.9302 19.3165C42.9302 19.1649 42.9543 19.0195 43.0025 18.8801C43.0507 18.7467 43.123 18.6255 43.2135 18.5285C43.3039 18.4315 43.4184 18.3527 43.551 18.2921C43.6836 18.2315 43.8403 18.2073 44.0151 18.2073C44.1477 18.2073 44.2743 18.2315 44.3948 18.28C44.5153 18.3285 44.6178 18.3952 44.7082 18.48C44.7986 18.5649 44.8649 18.6679 44.9192 18.7891C44.9734 18.9104 44.9975 19.0437 44.9975 19.1831C44.9975 19.2801 44.9915 19.3649 44.9734 19.4377H43.34C43.3581 19.6377 43.4304 19.7953 43.563 19.9044C43.6956 20.0135 43.8704 20.0741 44.0754 20.0741C44.214 20.0741 44.3406 20.0559 44.4491 20.0074C44.5636 19.965 44.654 19.9104 44.7203 19.8498L44.8468 20.1468ZM43.991 18.5588C43.7981 18.5588 43.6414 18.6134 43.5269 18.7164C43.4124 18.8255 43.34 18.9589 43.3219 19.1225H44.6058C44.5937 18.9467 44.5395 18.8073 44.431 18.7043C44.3225 18.6134 44.1718 18.5588 43.991 18.5588Z" fill="#1D1346"/>
<path d="M45.5039 18.2595H45.8475L46.6551 19.3081L47.4266 18.2534H47.7581V20.3748H47.3844V18.8292L46.6551 19.8172H46.6431L45.8836 18.8292V20.3748H45.5099V18.2595H45.5039Z" fill="#1D1346"/>
<path d="M48.4572 18.4012C48.5536 18.3406 48.6561 18.2921 48.7826 18.2618C48.9032 18.2255 49.0298 18.2073 49.1624 18.2073C49.4637 18.2073 49.6687 18.28 49.7892 18.4315C49.9097 18.5831 49.97 18.7952 49.97 19.074V20.3772H49.6204V20.1044C49.5602 20.1832 49.4758 20.2559 49.3673 20.3165C49.2588 20.3772 49.1202 20.4075 48.9454 20.4075C48.7525 20.4075 48.5958 20.3529 48.4753 20.2377C48.3547 20.1226 48.2944 19.9589 48.2944 19.7529C48.2944 19.6438 48.3125 19.5528 48.3547 19.4619C48.3969 19.3771 48.4511 19.3043 48.5235 19.2498C48.5958 19.1952 48.6802 19.1528 48.7766 19.1225C48.8731 19.0922 48.9815 19.0801 49.0961 19.0801C49.1744 19.0801 49.2648 19.0922 49.3673 19.1104C49.4637 19.1286 49.5481 19.1649 49.6204 19.2195C49.6204 19.1225 49.6144 19.0316 49.6024 18.9467C49.5903 18.8619 49.5722 18.7952 49.5361 18.7346C49.5059 18.674 49.4517 18.6316 49.3914 18.5952C49.3251 18.5649 49.2407 18.5467 49.1383 18.5467C49.0057 18.5467 48.8972 18.5588 48.8128 18.5891C48.7284 18.6194 48.644 18.6558 48.5596 18.6982L48.4572 18.4012ZM49.072 20.0741C49.2106 20.0741 49.3191 20.0438 49.4095 19.9832C49.4939 19.9226 49.5662 19.862 49.6204 19.8014V19.5347C49.4878 19.4377 49.3311 19.3953 49.1443 19.3953C49.09 19.3953 49.0298 19.4013 48.9755 19.4195C48.9213 19.4316 48.873 19.4559 48.8309 19.4801C48.7887 19.5104 48.7525 19.5468 48.7284 19.5892C48.7043 19.6316 48.6922 19.6862 48.6922 19.7468C48.6922 19.8498 48.7224 19.9286 48.7887 19.9892C48.855 20.0377 48.9454 20.0741 49.072 20.0741Z" fill="#1D1346"/>
<path d="M53.4898 17.3241C53.4235 17.409 53.3512 17.4696 53.2789 17.5059C53.2005 17.5423 53.1221 17.5665 53.0317 17.5847C52.9413 17.6029 52.8449 17.6211 52.7424 17.6393C52.64 17.6575 52.5315 17.6938 52.417 17.7484C52.3145 17.7908 52.2361 17.8514 52.1698 17.9302C52.1035 18.0029 52.0553 18.0878 52.0131 18.1848C51.9709 18.2757 51.9408 18.3787 51.9227 18.4757C51.9046 18.5727 51.8866 18.6757 51.8805 18.7788H51.8926C51.9287 18.706 51.9709 18.6333 52.0312 18.5787C52.0915 18.5181 52.1518 18.4696 52.2301 18.4212C52.3024 18.3787 52.3808 18.3424 52.4652 18.3181C52.5496 18.2939 52.64 18.2818 52.7304 18.2818C52.8811 18.2818 53.0137 18.306 53.1402 18.3545C53.2608 18.403 53.3632 18.4757 53.4476 18.5666C53.532 18.6575 53.5983 18.7727 53.6405 18.9C53.6887 19.0273 53.7068 19.1727 53.7068 19.3364C53.7068 19.4819 53.6827 19.6213 53.6284 19.7546C53.5742 19.8879 53.5019 20.0031 53.4054 20.1001C53.309 20.1971 53.1945 20.2759 53.0619 20.3365C52.9293 20.3971 52.7846 20.4213 52.6219 20.4213C52.4471 20.4213 52.2964 20.391 52.1578 20.3304C52.0192 20.2698 51.9046 20.1789 51.8082 20.0698C51.7118 19.9546 51.6394 19.8152 51.5852 19.6516C51.5309 19.4879 51.5068 19.3061 51.5068 19.1C51.5068 18.9424 51.5189 18.7788 51.537 18.6091C51.5551 18.4393 51.5912 18.2757 51.6515 18.1181C51.7118 17.9605 51.7841 17.8211 51.8866 17.6938C51.989 17.5665 52.1216 17.4696 52.2904 17.3968C52.4109 17.3423 52.5254 17.3059 52.6219 17.2877C52.7243 17.2695 52.8148 17.2574 52.8931 17.2392C52.9715 17.2271 53.0438 17.2029 53.1101 17.1786C53.1764 17.1544 53.2367 17.0998 53.2909 17.0271L53.4898 17.3241ZM51.9046 19.1788C51.9046 19.3182 51.9227 19.4394 51.9589 19.5546C51.995 19.6637 52.0433 19.7607 52.1035 19.8334C52.1638 19.9122 52.2422 19.9728 52.3265 20.0152C52.417 20.0577 52.5074 20.0819 52.6098 20.0819C52.7123 20.0819 52.8087 20.0637 52.8931 20.0274C52.9775 19.991 53.0498 19.9364 53.1101 19.8758C53.1704 19.8092 53.2186 19.7364 53.2547 19.6516C53.2909 19.5667 53.309 19.4697 53.309 19.3728C53.309 19.1667 53.2487 18.9909 53.1342 18.8576C53.0197 18.7182 52.8509 18.6515 52.6339 18.6515C52.5315 18.6515 52.4411 18.6697 52.3627 18.7C52.2844 18.7303 52.212 18.7727 52.1457 18.8212C52.0855 18.8697 52.0312 18.9303 51.989 18.9909C51.9468 19.0394 51.9227 19.1061 51.9046 19.1788Z" fill="#1D1346"/>
<path d="M54.2495 18.2556H54.6232V18.892H54.9728C55.1355 18.892 55.2681 18.9102 55.3766 18.9526C55.4851 18.9951 55.5695 19.0496 55.6298 19.1163C55.6961 19.183 55.7382 19.2618 55.7684 19.3527C55.7925 19.4436 55.8106 19.5345 55.8106 19.6254C55.8106 19.7224 55.7985 19.8133 55.7684 19.9042C55.7382 19.9952 55.69 20.0739 55.6237 20.1467C55.5574 20.2194 55.467 20.274 55.3525 20.3164C55.238 20.3588 55.0994 20.3831 54.9366 20.3831H54.2495V18.2556ZM54.6232 19.2436V20.0255H54.8944C55.0813 20.0255 55.2139 19.9952 55.2922 19.9285C55.3706 19.8618 55.4067 19.7648 55.4067 19.6375C55.4067 19.5103 55.3706 19.4133 55.2922 19.3466C55.2139 19.2799 55.0813 19.2496 54.9005 19.2496H54.6232V19.2436ZM56.2084 18.2556H56.5821V20.377H56.2084V18.2556Z" fill="#1D1346"/>
<path d="M59.0653 20.0751C58.9749 20.1903 58.8543 20.2812 58.7157 20.3418C58.5711 20.4024 58.4204 20.4327 58.2576 20.4327C58.0889 20.4327 57.9382 20.4085 57.7996 20.3539C57.6609 20.2994 57.5404 20.2266 57.444 20.1297C57.3415 20.0327 57.2692 19.9175 57.2089 19.7781C57.1546 19.6387 57.1245 19.4872 57.1245 19.3235C57.1245 19.172 57.1486 19.0265 57.2029 18.8871C57.2571 18.7538 57.3294 18.6326 57.4259 18.5356C57.5223 18.4386 57.6368 18.3598 57.7634 18.2992C57.896 18.2386 58.0346 18.2144 58.1913 18.2144C58.3601 18.2144 58.5168 18.2386 58.6554 18.281C58.8001 18.3235 58.9206 18.3962 59.0171 18.4932L58.8423 18.7902C58.7519 18.7114 58.6554 18.6508 58.553 18.6205C58.4505 18.5901 58.348 18.572 58.2335 18.572C58.1371 18.572 58.0467 18.5901 57.9623 18.6265C57.8719 18.6629 57.7996 18.7114 57.7272 18.778C57.6609 18.8447 57.6067 18.9235 57.5705 19.0144C57.5344 19.1053 57.5103 19.2084 57.5103 19.3235C57.5103 19.4387 57.5283 19.5417 57.5705 19.6387C57.6127 19.7296 57.667 19.8084 57.7333 19.8751C57.7996 19.9418 57.8839 19.9903 57.9744 20.0266C58.0648 20.063 58.1672 20.0812 58.2697 20.0812C58.3963 20.0812 58.5108 20.0569 58.6132 20.0084C58.7157 19.96 58.8001 19.8933 58.8724 19.8084L59.0653 20.0751Z" fill="#1D1346"/>
<path d="M59.2583 18.2556H61.181V18.6314H60.4035V20.377H60.0298V18.6314H59.2583V18.2556Z" fill="#1D1346"/>
<path d="M61.5907 18.2558H61.9644V18.5043C62.0367 18.4194 62.1392 18.3467 62.2657 18.2921C62.3983 18.2376 62.537 18.2073 62.6816 18.2073C62.8323 18.2073 62.9649 18.2315 63.0854 18.2861C63.206 18.3406 63.3084 18.4134 63.3928 18.5103C63.4772 18.6073 63.5435 18.7164 63.5857 18.8498C63.6339 18.9831 63.652 19.1286 63.652 19.2862C63.652 19.4437 63.6279 19.5953 63.5736 19.7347C63.5194 19.8741 63.4471 19.9953 63.3506 20.0983C63.2542 20.2014 63.1397 20.2802 63.0011 20.3408C62.8685 20.4014 62.7178 20.4256 62.549 20.4256C62.4345 20.4256 62.326 20.4135 62.2235 20.3893C62.1211 20.365 62.0307 20.3287 61.9523 20.2802V21.3227H61.5786V18.2558H61.5907ZM62.5731 18.5588C62.4465 18.5588 62.332 18.5891 62.2235 18.6437C62.115 18.6982 62.0307 18.771 61.9644 18.8498V19.9044C62.0608 19.965 62.1512 20.0135 62.2416 20.0317C62.332 20.0559 62.4285 20.068 62.5249 20.068C62.6394 20.068 62.7419 20.0499 62.8323 20.0074C62.9227 19.9711 63.0011 19.9165 63.0613 19.8498C63.1216 19.7832 63.1698 19.6983 63.206 19.6074C63.2421 19.5104 63.2602 19.4074 63.2602 19.2983C63.2602 19.1892 63.2482 19.0922 63.218 19.0013C63.1879 18.9104 63.1457 18.8316 63.0854 18.7649C63.0252 18.6982 62.9528 18.6497 62.8685 18.6134C62.778 18.577 62.6816 18.5588 62.5731 18.5588Z" fill="#1D1346"/>
<path d="M35.3843 23.0036H34.2331V24.7735H33.8594V22.6521H35.758V24.7735H35.3843V23.0036Z" fill="#1D1346"/>
<path d="M37.8852 23.0276H37.1438L37.1197 23.3852C37.0956 23.6883 37.0595 23.9307 37.0052 24.1186C36.957 24.3065 36.8967 24.4459 36.8244 24.5489C36.7521 24.652 36.6677 24.7187 36.5773 24.749C36.4808 24.7853 36.3844 24.8035 36.2699 24.8035L36.2397 24.4338C36.2819 24.4398 36.3241 24.4277 36.3784 24.4035C36.4326 24.3792 36.4808 24.3307 36.5351 24.2459C36.5833 24.1671 36.6315 24.0519 36.6737 23.9004C36.7159 23.7489 36.74 23.5549 36.7521 23.3064L36.7882 22.6458H38.2589V24.7671H37.8852V23.0276Z" fill="#1D1346"/>
<path d="M38.9523 22.7982C39.0487 22.7376 39.1512 22.6891 39.2778 22.6588C39.3983 22.6224 39.5249 22.6042 39.6575 22.6042C39.9588 22.6042 40.1638 22.677 40.2843 22.8285C40.4049 22.98 40.4651 23.1922 40.4651 23.471V24.7741H40.1156V24.5014C40.0553 24.5802 39.9709 24.6529 39.8624 24.7135C39.7539 24.7741 39.6153 24.8044 39.4405 24.8044C39.2476 24.8044 39.0909 24.7499 38.9704 24.6347C38.8498 24.5196 38.7896 24.3559 38.7896 24.1498C38.7896 24.0407 38.8076 23.9498 38.8498 23.8589C38.892 23.774 38.9463 23.7013 39.0186 23.6468C39.0909 23.5922 39.1753 23.5498 39.2717 23.5195C39.3682 23.4892 39.4767 23.477 39.5912 23.477C39.6695 23.477 39.7599 23.4892 39.8624 23.5074C39.9588 23.5255 40.0432 23.5619 40.1156 23.6165C40.1156 23.5195 40.1095 23.4286 40.0975 23.3437C40.0854 23.2588 40.0673 23.1922 40.0312 23.1316C40.001 23.071 39.9468 23.0285 39.8865 22.9922C39.8202 22.9619 39.7358 22.9437 39.6334 22.9437C39.5008 22.9437 39.3923 22.9558 39.3079 22.9861C39.2235 23.0164 39.1391 23.0528 39.0548 23.0952L38.9523 22.7982ZM39.5671 24.4711C39.7057 24.4711 39.8142 24.4408 39.9046 24.3802C39.989 24.3195 40.0613 24.2589 40.1156 24.1983V23.9316C39.983 23.8347 39.8262 23.7922 39.6394 23.7922C39.5852 23.7922 39.5249 23.7983 39.4706 23.8165C39.4164 23.8286 39.3682 23.8528 39.326 23.8771C39.2838 23.9074 39.2476 23.9438 39.2235 23.9862C39.1994 24.0286 39.1874 24.0832 39.1874 24.1438C39.1874 24.2468 39.2175 24.3256 39.2838 24.3862C39.3501 24.4408 39.4465 24.4711 39.5671 24.4711Z" fill="#1D1346"/>
<path d="M40.8325 22.6521H42.7552V23.0279H41.9777V24.7735H41.604V23.0279H40.8325V22.6521Z" fill="#1D1346"/>
<path d="M44.8771 24.5438C44.7747 24.6408 44.6481 24.7075 44.5095 24.7559C44.3648 24.8044 44.2262 24.8226 44.0876 24.8226C43.9128 24.8226 43.7621 24.7984 43.6234 24.7438C43.4848 24.6893 43.3643 24.6165 43.2678 24.5196C43.1714 24.4226 43.093 24.3074 43.0388 24.168C42.9846 24.0286 42.9604 23.8771 42.9604 23.7134C42.9604 23.5619 42.9846 23.4164 43.0328 23.277C43.081 23.1437 43.1533 23.0225 43.2437 22.9255C43.3341 22.8285 43.4487 22.7497 43.5813 22.6891C43.7139 22.6285 43.8706 22.6042 44.0454 22.6042C44.178 22.6042 44.3045 22.6285 44.4251 22.677C44.5456 22.7255 44.6481 22.7921 44.7385 22.877C44.8289 22.9619 44.8952 23.0649 44.9495 23.1861C45.0037 23.3073 45.0278 23.4407 45.0278 23.5801C45.0278 23.6771 45.0218 23.7619 45.0037 23.8347H43.3824C43.4004 24.0347 43.4728 24.1923 43.6054 24.3014C43.738 24.4105 43.9128 24.4711 44.1177 24.4711C44.2563 24.4711 44.3829 24.4529 44.4914 24.4044C44.6059 24.362 44.6963 24.3074 44.7626 24.2468L44.8771 24.5438ZM44.0212 22.9619C43.8284 22.9619 43.6717 23.0164 43.5571 23.1194C43.4426 23.2285 43.3703 23.3619 43.3522 23.5255H44.636C44.624 23.3498 44.5697 23.2104 44.4612 23.1073C44.3527 23.0103 44.2081 22.9619 44.0212 22.9619Z" fill="#1D1346"/>
<path d="M45.2085 22.6521H45.6847L46.408 23.6764L45.6304 24.7735H45.1724L45.986 23.6764L45.2085 22.6521ZM46.4984 22.6521H46.8721V24.7735H46.4984V22.6521ZM47.3904 23.6764L48.2161 24.7735H47.752L46.9685 23.6764L47.6978 22.6521H48.1619L47.3904 23.6764Z" fill="#1D1346"/>
<path d="M50.2956 24.5438C50.1931 24.6408 50.0665 24.7075 49.9279 24.7559C49.7833 24.8044 49.6446 24.8226 49.506 24.8226C49.3312 24.8226 49.1805 24.7984 49.0419 24.7438C48.9033 24.6893 48.7827 24.6165 48.6863 24.5196C48.5899 24.4226 48.5115 24.3074 48.4573 24.168C48.403 24.0286 48.3789 23.8771 48.3789 23.7134C48.3789 23.5619 48.403 23.4164 48.4512 23.277C48.4995 23.1437 48.5718 23.0225 48.6622 22.9255C48.7526 22.8285 48.8671 22.7497 48.9997 22.6891C49.1323 22.6285 49.289 22.6042 49.4638 22.6042C49.5964 22.6042 49.723 22.6285 49.8435 22.677C49.9641 22.7255 50.0665 22.7921 50.157 22.877C50.2474 22.9619 50.3137 23.0649 50.3679 23.1861C50.4222 23.3073 50.4463 23.4407 50.4463 23.5801C50.4463 23.6771 50.4402 23.7619 50.4222 23.8347H48.8008C48.8189 24.0347 48.8912 24.1923 49.0238 24.3014C49.1564 24.4105 49.3312 24.4711 49.5361 24.4711C49.6748 24.4711 49.8013 24.4529 49.9098 24.4044C50.0244 24.362 50.1148 24.3074 50.1811 24.2468L50.2956 24.5438ZM49.4397 22.9619C49.2468 22.9619 49.0901 23.0164 48.9756 23.1194C48.8611 23.2285 48.7888 23.3619 48.7707 23.5255H50.0545C50.0424 23.3498 49.9882 23.2104 49.8797 23.1073C49.7712 23.0103 49.6266 22.9619 49.4397 22.9619Z" fill="#1D1346"/>
<path d="M50.9526 24.7722V22.6509H51.3263V24.2328L52.5499 22.6509H52.9236V24.7722H52.5499V23.1903L51.3263 24.7722H50.9526ZM51.6036 21.5659C51.6217 21.8144 51.7422 21.9417 51.9652 21.9417C52.1762 21.9417 52.2907 21.8205 52.3088 21.5659H52.6584C52.6584 21.6629 52.6403 21.7478 52.6101 21.8265C52.58 21.9053 52.5318 21.9781 52.4715 22.0326C52.4112 22.0932 52.3389 22.1357 52.2545 22.172C52.1701 22.2084 52.0737 22.2266 51.9652 22.2266C51.8507 22.2266 51.7482 22.2084 51.6578 22.172C51.5674 22.1357 51.4951 22.0932 51.4348 22.0326C51.3745 21.972 51.3324 21.9053 51.2962 21.8265C51.2661 21.7478 51.248 21.6568 51.248 21.5659H51.6036Z" fill="#1D1346"/>
<path d="M54.3098 9.36011V15.5606H52.14V11.2027H50.0546V15.5606H47.8848V9.36011H54.3098Z" fill="#1D1346"/>
<path d="M46.8179 12.6555C46.848 14.4557 45.4015 15.7406 43.3522 15.7406C41.4114 15.7406 39.772 14.5587 39.772 11.6797C39.772 9.23705 41.327 7.2187 43.6234 7.18233C44.63 7.18233 46.8179 7.17627 46.8179 7.17627L45.8053 9.01279C45.8053 9.01279 44.0815 9.01279 43.8524 9.01279C42.864 9.01279 41.978 9.68557 41.8514 10.7099C42.3818 10.2129 43.2015 9.91589 44.0453 9.91589C45.6305 9.92196 46.7938 11.2736 46.8179 12.6555ZM44.6541 12.7949C44.6541 12.0797 44.1056 11.4797 43.3642 11.4797C42.6289 11.4797 42.0503 12.0858 42.0623 12.807C42.0623 13.5707 42.7374 14.0859 43.322 14.0859C44.0694 14.0859 44.6541 13.5223 44.6541 12.7949Z" fill="#1D1346"/>
<path d="M38.1022 13.437C38.1022 13.437 37.3729 13.9279 36.4025 13.9098C35.7938 13.9098 34.9801 13.3764 34.9801 12.4369C34.9921 11.4792 35.7998 10.9641 36.4085 10.9641C37.3548 10.9337 38.1022 11.4368 38.1022 11.4368L38.9099 9.97003C38.1926 9.45484 37.5055 9.18209 36.5291 9.17603C34.4135 9.17603 32.9609 10.9034 32.9609 12.443C32.9609 14.2431 34.5762 15.7281 36.517 15.7402C37.3729 15.7523 38.2469 15.4675 38.9219 14.928L38.1022 13.437Z" fill="#1D1346"/>
</svg>
