<svg width="64" height="32" viewBox="0 0 64 32" fill="none" xmlns="http://www.w3.org/2000/svg">
<path d="M37.2619 6.54504H26.7388V25.4548H37.2619V6.54504Z" fill="#FF5F00"/>
<path d="M27.407 15.9999C27.4053 14.1788 27.818 12.3811 28.6138 10.743C29.4096 9.10497 30.5677 7.66941 32.0004 6.54505C30.2262 5.15058 28.0955 4.28337 25.8518 4.04256C23.6081 3.80175 21.3419 4.19703 19.3122 5.18326C17.2826 6.16948 15.5713 7.70684 14.3741 9.61961C13.1769 11.5324 12.542 13.7434 12.542 15.9999C12.542 18.2565 13.1769 20.4675 14.3741 22.3802C15.5713 24.293 17.2826 25.8304 19.3122 26.8166C21.3419 27.8028 23.6081 28.1981 25.8518 27.9573C28.0955 27.7165 30.2262 26.8493 32.0004 25.4548C30.5677 24.3304 29.4097 22.8949 28.6138 21.2568C27.818 19.6187 27.4053 17.8211 27.407 15.9999Z" fill="#EB001B"/>
<path d="M51.4581 15.9999C51.4582 18.2564 50.8234 20.4674 49.6262 22.3802C48.4291 24.293 46.7179 25.8303 44.6883 26.8165C42.6586 27.8028 40.3925 28.1981 38.1488 27.9573C35.9051 27.7165 33.7744 26.8493 32.0004 25.4548C33.4317 24.3293 34.5889 22.8935 35.3846 21.2557C36.1803 19.6179 36.5937 17.8208 36.5937 15.9999C36.5937 14.1791 36.1803 12.382 35.3846 10.7442C34.5889 9.10633 33.4317 7.67055 32.0004 6.54505C33.7744 5.15057 35.9051 4.28337 38.1488 4.04256C40.3925 3.80175 42.6586 4.19705 44.6883 5.18328C46.7179 6.16951 48.4291 7.70687 49.6262 9.61965C50.8234 11.5324 51.4582 13.7434 51.4581 15.9999Z" fill="#F79E1B"/>
<path d="M50.3107 23.452V23.0648H50.4668V22.9859H50.0693V23.0648H50.2254V23.452H50.3107ZM51.0826 23.452V22.9852H50.9607L50.8206 23.3062L50.6804 22.9852H50.5584V23.452H50.6445V23.0999L50.7759 23.4034H50.8652L50.9966 23.0991V23.452H51.0826Z" fill="#F79E1B"/>
</svg>
