<svg width="64" height="32" viewBox="0 0 64 32" fill="none" xmlns="http://www.w3.org/2000/svg">
<path d="M52.3622 8.57397H42.4926C43.0675 11.8319 46.2296 14.8982 49.6792 14.8982H57.5366C57.6324 14.6107 57.6324 14.1316 57.6324 13.8442C57.6324 10.9695 55.2368 8.57397 52.3622 8.57397Z" fill="url(#paint0_linear_26160_1251)"/>
<path d="M43.3547 15.4729V23.4261H48.1458V19.21H52.3619C54.6616 19.21 56.6739 17.581 57.3446 15.4729H43.3547Z" fill="#4FAD50"/>
<path d="M26.4905 8.57397V23.3305H30.7067C30.7067 23.3305 31.7607 23.3305 32.3356 22.2764C35.2103 16.623 36.0726 14.8982 36.0726 14.8982H36.6476V23.3305H41.4387V8.57397H37.2225C37.2225 8.57397 36.1685 8.6698 35.5935 9.62802C33.198 14.5149 31.8565 17.0063 31.8565 17.0063H31.2816V8.57397H26.4905Z" fill="#4FAD50"/>
<path d="M6.36768 23.3305V8.57397H11.1588C11.1588 8.57397 12.5003 8.57397 13.2668 10.682C15.1833 16.2397 15.3749 17.0063 15.3749 17.0063C15.3749 17.0063 15.7582 15.6648 17.483 10.682C18.2496 8.57397 19.5911 8.57397 19.5911 8.57397H24.3821V23.3305H19.5911V15.3773H19.0161L16.3331 23.3305H14.2251L11.5421 15.3773H10.9671V23.3305H6.36768Z" fill="#4FAD50"/>
<defs>
<linearGradient id="paint0_linear_26160_1251" x1="6.30992" y1="16.1065" x2="57.5175" y2="16.1065" gradientUnits="userSpaceOnUse">
<stop stop-color="#27B1E6"/>
<stop offset="1" stop-color="#148ACA"/>
</linearGradient>
</defs>
</svg>
