<svg width="56" height="56" viewBox="0 0 56 56" fill="none" xmlns="http://www.w3.org/2000/svg">
<path d="M51.3334 28.0001C51.3334 40.8867 40.8867 51.3334 28 51.3334C15.1134 51.3334 4.66669 40.8867 4.66669 28.0001C4.66669 15.1134 15.1134 4.66675 28 4.66675C40.8867 4.66675 51.3334 15.1134 51.3334 28.0001Z" fill="#E9F8F1"/>
<path d="M37.3334 23.3334L25.2848 34.2866C24.8398 34.6912 24.1602 34.6912 23.7152 34.2866L18.6667 29.6971M51.3334 28.0001C51.3334 40.8867 40.8867 51.3334 28 51.3334C15.1134 51.3334 4.66669 40.8867 4.66669 28.0001C4.66669 15.1134 15.1134 4.66675 28 4.66675C40.8867 4.66675 51.3334 15.1134 51.3334 28.0001Z" stroke="#27B973" stroke-width="3" stroke-linecap="round"/>
</svg>
