<svg width="20" height="20" viewBox="0 0 20 20" fill="none" xmlns="http://www.w3.org/2000/svg">
<path fill-rule="evenodd" clip-rule="evenodd" d="M15.5891 4.41083C15.9145 4.73626 15.9145 5.2639 15.5891 5.58934L11.1783 10.0001L15.5891 14.4108C15.9145 14.7363 15.9145 15.2639 15.5891 15.5893C15.2637 15.9148 14.736 15.9148 14.4106 15.5893L9.99983 11.1786L5.58909 15.5893C5.26366 15.9148 4.73602 15.9148 4.41058 15.5893C4.08514 15.2639 4.08514 14.7363 4.41058 14.4108L8.82132 10.0001L4.41058 5.58935C4.08515 5.26391 4.08515 4.73627 4.41058 4.41083C4.73602 4.0854 5.26366 4.0854 5.58909 4.41083L9.99983 8.82158L14.4106 4.41083C14.736 4.08539 15.2637 4.08539 15.5891 4.41083Z" fill="#E33B32"/>
</svg>
