<svg width="63" height="48" viewBox="0 0 63 48" fill="none" xmlns="http://www.w3.org/2000/svg">
<g filter="url(#filter0_d_30141_1504)">
<path d="M1 9C1 4.58172 4.58172 1 9 1H54C58.4183 1 62 4.58172 62 9V30C62 34.4183 58.4183 38 54 38H9C4.58172 38 1 34.4183 1 30V9Z" fill="white"/>
<path d="M32.7211 45.885C32.4117 46.4209 32.257 46.6888 32.0793 46.8151C31.7324 47.0616 31.2676 47.0616 30.9207 46.8151C30.743 46.6888 30.5883 46.4209 30.2789 45.885L25.7929 38.115C25.4835 37.5791 25.3288 37.3112 25.3083 37.0941C25.2683 36.6705 25.5007 36.2679 25.8876 36.0908C26.0858 36 26.3952 36 27.014 36L35.986 36C36.6048 36 36.9142 36 37.1125 36.0908C37.4994 36.2679 37.7318 36.6705 37.6917 37.0941C37.6712 37.3112 37.5165 37.5791 37.2071 38.115L32.7211 45.885Z" fill="white"/>
</g>
<defs>
<filter id="filter0_d_30141_1504" x="0" y="0" width="63" height="49" filterUnits="userSpaceOnUse" color-interpolation-filters="sRGB">
<feFlood flood-opacity="0" result="BackgroundImageFix"/>
<feColorMatrix in="SourceAlpha" type="matrix" values="0 0 0 0 0 0 0 0 0 0 0 0 0 0 0 0 0 0 127 0" result="hardAlpha"/>
<feOffset/>
<feGaussianBlur stdDeviation="0.5"/>
<feColorMatrix type="matrix" values="0 0 0 0 0.654902 0 0 0 0 0.658824 0 0 0 0 0.670588 0 0 0 1 0"/>
<feBlend mode="normal" in2="BackgroundImageFix" result="effect1_dropShadow_30141_1504"/>
<feBlend mode="normal" in="SourceGraphic" in2="effect1_dropShadow_30141_1504" result="shape"/>
</filter>
</defs>
</svg>
