<svg width="56" height="56" viewBox="0 0 56 56" fill="none" xmlns="http://www.w3.org/2000/svg">
<rect width="56" height="56" rx="28" fill="#FFEFEE"/>
<path fill-rule="evenodd" clip-rule="evenodd" d="M43.65 12.3502C44.5612 13.2614 44.5612 14.7388 43.65 15.65L31.2999 28.0001L43.65 40.3502C44.5612 41.2614 44.5612 42.7388 43.65 43.65C42.7388 44.5613 41.2614 44.5613 40.3502 43.65L28.0001 31.2999L15.65 43.65C14.7388 44.5612 13.2614 44.5612 12.3502 43.65C11.4389 42.7388 11.4389 41.2614 12.3502 40.3502L24.7002 28.0001L12.3502 15.65C11.4389 14.7388 11.4389 13.2614 12.3502 12.3502C13.2614 11.439 14.7388 11.439 15.65 12.3502L28.0001 24.7003L40.3502 12.3502C41.2614 11.4389 42.7388 11.4389 43.65 12.3502Z" fill="#E33B32"/>
</svg>
