<svg width="32" height="32" viewBox="0 0 32 32" fill="none" xmlns="http://www.w3.org/2000/svg">
<g clip-path="url(#clip0_30102_584)">
<g filter="url(#filter0_d_30102_584)">
<path d="M21.8889 4H10.1111C9.68156 4 9.33333 4.34822 9.33333 4.77778C9.33333 6.92555 7.59222 8.66667 5.44444 8.66667H4.88889C4.39797 8.66667 4 9.06464 4 9.55556V10.7004C4 18.0861 8.00418 24.8912 14.4604 28.478L14.9647 28.7582C15.6086 29.1159 16.3914 29.1159 17.0353 28.7582L17.5396 28.478C23.9958 24.8912 28 18.0861 28 10.7004V9.55556C28 9.06464 27.602 8.66667 27.1111 8.66667H26.5556C24.4078 8.66667 22.6667 6.92555 22.6667 4.77778C22.6667 4.34822 22.3184 4 21.8889 4Z" fill="#ECF4FC"/>
<path d="M20 13.3333L15.1381 18.1953C14.8777 18.4556 14.4556 18.4556 14.1953 18.1953L12 16M10.1111 4H21.8889C22.3184 4 22.6667 4.34822 22.6667 4.77778C22.6667 6.92555 24.4078 8.66667 26.5556 8.66667H27.1111C27.602 8.66667 28 9.06464 28 9.55556V10.7004C28 18.0861 23.9958 24.8912 17.5396 28.478L17.0353 28.7582C16.3914 29.1159 15.6086 29.1159 14.9647 28.7582L14.4604 28.478C8.00418 24.8912 4 18.0861 4 10.7004V9.55556C4 9.06464 4.39797 8.66667 4.88889 8.66667H5.44444C7.59222 8.66667 9.33333 6.92555 9.33333 4.77778C9.33333 4.34822 9.68156 4 10.1111 4Z" stroke="#0000CD" stroke-width="1.84615" stroke-linecap="round"/>
</g>
</g>
<defs>
<filter id="filter0_d_30102_584" x="1.07715" y="2.0769" width="29.8457" height="30.8726" filterUnits="userSpaceOnUse" color-interpolation-filters="sRGB">
<feFlood flood-opacity="0" result="BackgroundImageFix"/>
<feColorMatrix in="SourceAlpha" type="matrix" values="0 0 0 0 0 0 0 0 0 0 0 0 0 0 0 0 0 0 127 0" result="hardAlpha"/>
<feOffset dy="1"/>
<feGaussianBlur stdDeviation="1"/>
<feComposite in2="hardAlpha" operator="out"/>
<feColorMatrix type="matrix" values="0 0 0 0 0.0627451 0 0 0 0 0.0941176 0 0 0 0 0.156863 0 0 0 0.04 0"/>
<feBlend mode="normal" in2="BackgroundImageFix" result="effect1_dropShadow_30102_584"/>
<feBlend mode="normal" in="SourceGraphic" in2="effect1_dropShadow_30102_584" result="shape"/>
</filter>
<clipPath id="clip0_30102_584">
<rect width="32" height="32" fill="white"/>
</clipPath>
</defs>
</svg>
