<svg width="33" height="34" viewBox="0 0 33 34" fill="none" xmlns="http://www.w3.org/2000/svg">
<g filter="url(#filter0_d_30102_232)">
<path d="M16.2563 10.6667V16.0001L18.5656 17.3334M3.26871 19.0304C3.04246 18.0569 2.92285 17.0424 2.92285 16.0001C2.92285 14.9577 3.04246 13.9433 3.26871 12.9698M13.8319 2.8866C14.6181 2.7422 15.4283 2.66675 16.2562 2.66675C23.62 2.66675 29.5895 8.63628 29.5895 16.0001C29.5895 23.3639 23.62 29.3334 16.2562 29.3334C15.4283 29.3334 14.6181 29.258 13.8319 29.1136M9.58952 4.45051C7.77088 5.50253 6.22379 6.97177 5.07913 8.72735M5.07913 23.2728C6.22379 25.0284 7.77088 26.4976 9.58952 27.5497" stroke="#0000CD" stroke-width="1.84615" stroke-linecap="round"/>
</g>
<defs>
<filter id="filter0_d_30102_232" x="0" y="0.743652" width="32.5127" height="32.5129" filterUnits="userSpaceOnUse" color-interpolation-filters="sRGB">
<feFlood flood-opacity="0" result="BackgroundImageFix"/>
<feColorMatrix in="SourceAlpha" type="matrix" values="0 0 0 0 0 0 0 0 0 0 0 0 0 0 0 0 0 0 127 0" result="hardAlpha"/>
<feOffset dy="1"/>
<feGaussianBlur stdDeviation="1"/>
<feComposite in2="hardAlpha" operator="out"/>
<feColorMatrix type="matrix" values="0 0 0 0 0.0627451 0 0 0 0 0.0941176 0 0 0 0 0.156863 0 0 0 0.04 0"/>
<feBlend mode="normal" in2="BackgroundImageFix" result="effect1_dropShadow_30102_232"/>
<feBlend mode="normal" in="SourceGraphic" in2="effect1_dropShadow_30102_232" result="shape"/>
</filter>
</defs>
</svg>
