<svg width="32" height="32" viewBox="0 0 32 32" fill="none" xmlns="http://www.w3.org/2000/svg">
<g filter="url(#filter0_d_30102_883)">
<path d="M3.87917 17.5624C3.42374 16.5716 3.42374 15.4286 3.87917 14.4377C5.98731 9.85132 10.622 6.66675 16.0004 6.66675C21.3788 6.66675 26.0135 9.85132 28.1216 14.4377C28.5771 15.4286 28.5771 16.5716 28.1216 17.5624C26.0135 22.1488 21.3788 25.3334 16.0004 25.3334C10.622 25.3334 5.98731 22.1488 3.87917 17.5624Z" fill="#ECF4FC"/>
<path d="M20.0004 16.0001C20.0004 18.2092 18.2095 20.0001 16.0004 20.0001C13.7913 20.0001 12.0004 18.2092 12.0004 16.0001C12.0004 13.7909 13.7913 12.0001 16.0004 12.0001C18.2095 12.0001 20.0004 13.7909 20.0004 16.0001Z" fill="#ECF4FC"/>
<path d="M3.87917 17.5624C3.42374 16.5716 3.42374 15.4286 3.87917 14.4377C5.98731 9.85132 10.622 6.66675 16.0004 6.66675C21.3788 6.66675 26.0135 9.85132 28.1216 14.4377C28.5771 15.4286 28.5771 16.5716 28.1216 17.5624C26.0135 22.1488 21.3788 25.3334 16.0004 25.3334C10.622 25.3334 5.98731 22.1488 3.87917 17.5624Z" stroke="#0000CD" stroke-width="1.84615"/>
<path d="M20.0004 16.0001C20.0004 18.2092 18.2095 20.0001 16.0004 20.0001C13.7913 20.0001 12.0004 18.2092 12.0004 16.0001C12.0004 13.7909 13.7913 12.0001 16.0004 12.0001C18.2095 12.0001 20.0004 13.7909 20.0004 16.0001Z" stroke="#0000CD" stroke-width="1.84615"/>
</g>
<defs>
<filter id="filter0_d_30102_883" x="0.614746" y="4.74365" width="30.7715" height="24.5129" filterUnits="userSpaceOnUse" color-interpolation-filters="sRGB">
<feFlood flood-opacity="0" result="BackgroundImageFix"/>
<feColorMatrix in="SourceAlpha" type="matrix" values="0 0 0 0 0 0 0 0 0 0 0 0 0 0 0 0 0 0 127 0" result="hardAlpha"/>
<feOffset dy="1"/>
<feGaussianBlur stdDeviation="1"/>
<feComposite in2="hardAlpha" operator="out"/>
<feColorMatrix type="matrix" values="0 0 0 0 0.0627451 0 0 0 0 0.0941176 0 0 0 0 0.156863 0 0 0 0.04 0"/>
<feBlend mode="normal" in2="BackgroundImageFix" result="effect1_dropShadow_30102_883"/>
<feBlend mode="normal" in="SourceGraphic" in2="effect1_dropShadow_30102_883" result="shape"/>
</filter>
</defs>
</svg>
