<svg width="324" height="50" viewBox="0 0 324 50" fill="none" xmlns="http://www.w3.org/2000/svg">
<g clip-path="url(#clip0_30102_692)">
<path d="M72.69 35.8143C72.69 36.837 72.5054 37.7209 72.1363 38.4658C71.7672 39.2108 71.2608 39.7853 70.6172 40.1893C69.9736 40.5934 69.2385 40.7954 68.4119 40.7954C67.5853 40.7954 66.8502 40.5934 66.2066 40.1893C65.563 39.7853 65.0566 39.2108 64.6875 38.4658C64.3184 37.7209 64.1338 36.837 64.1338 35.8143C64.1338 34.7916 64.3184 33.9077 64.6875 33.1628C65.0566 32.4178 65.563 31.8434 66.2066 31.4393C66.8502 31.0353 67.5853 30.8333 68.4119 30.8333C69.2385 30.8333 69.9736 31.0353 70.6172 31.4393C71.2608 31.8434 71.7672 32.4178 72.1363 33.1628C72.5054 33.9077 72.69 34.7916 72.69 35.8143ZM71.5542 35.8143C71.5542 34.9747 71.4138 34.266 71.133 33.6884C70.8554 33.1107 70.4784 32.6735 70.002 32.3768C69.5287 32.0801 68.9987 31.9317 68.4119 31.9317C67.8251 31.9317 67.2935 32.0801 66.8171 32.3768C66.3438 32.6735 65.9668 33.1107 65.686 33.6884C65.4084 34.266 65.2696 34.9747 65.2696 35.8143C65.2696 36.654 65.4084 37.3626 65.686 37.9403C65.9668 38.5179 66.3438 38.9551 66.8171 39.2518C67.2935 39.5485 67.8251 39.6969 68.4119 39.6969C68.9987 39.6969 69.5287 39.5485 70.002 39.2518C70.4784 38.9551 70.8554 38.5179 71.133 37.9403C71.4138 37.3626 71.5542 36.654 71.5542 35.8143Z" fill="#2C4068"/>
<path d="M79.3769 36.5151V37.5567H75.3638V36.5151H79.3769ZM75.6288 33.3901V40.6628H74.512V33.3901H75.6288ZM80.2287 33.3901V40.6628H79.1119V33.3901H80.2287Z" fill="#2C4068"/>
<path d="M81.6248 40.6628V39.6211H81.8898C82.1075 39.6211 82.2889 39.5785 82.434 39.4933C82.5792 39.4049 82.6959 39.2518 82.7842 39.034C82.8757 38.8131 82.9451 38.5069 82.9925 38.1154C83.0429 37.7209 83.0792 37.219 83.1013 36.6098L83.2338 33.3901H88.0798V40.6628H86.963V34.4317H84.2939L84.1803 37.0264C84.1551 37.623 84.1014 38.1486 84.0194 38.6031C83.9405 39.0545 83.8191 39.4333 83.655 39.7395C83.4941 40.0457 83.2796 40.2761 83.0114 40.4308C82.7432 40.5855 82.4072 40.6628 82.0034 40.6628H81.6248Z" fill="#2C4068"/>
<path d="M92.268 40.8333C91.8074 40.8333 91.3893 40.7464 91.0139 40.5728C90.6385 40.3961 90.3403 40.142 90.1195 39.8105C89.8986 39.4759 89.7882 39.0719 89.7882 38.5984C89.7882 38.1817 89.8702 37.844 90.0343 37.5851C90.1983 37.3232 90.4176 37.118 90.6921 36.9696C90.9666 36.8213 91.2695 36.7108 91.6007 36.6382C91.9351 36.5624 92.2711 36.5024 92.6087 36.4583C93.0504 36.4014 93.4085 36.3588 93.683 36.3304C93.9606 36.2988 94.1625 36.2468 94.2887 36.1742C94.4181 36.1016 94.4828 35.9753 94.4828 35.7954V35.7575C94.4828 35.2903 94.355 34.9273 94.0994 34.6685C93.847 34.4096 93.4637 34.2802 92.9495 34.2802C92.4163 34.2802 91.9982 34.397 91.6954 34.6306C91.3925 34.8642 91.1795 35.1136 91.0565 35.3787L89.9964 34.9999C90.1857 34.558 90.4381 34.2139 90.7536 33.9677C91.0723 33.7184 91.4193 33.5447 91.7948 33.4469C92.1733 33.3459 92.5456 33.2954 92.9116 33.2954C93.1451 33.2954 93.4132 33.3238 93.7161 33.3806C94.0221 33.4343 94.3171 33.5463 94.6011 33.7168C94.8882 33.8872 95.1264 34.1445 95.3157 34.4886C95.505 34.8326 95.5996 35.2935 95.5996 35.8711V40.6628H94.4828V39.6779H94.426C94.3503 39.8358 94.2241 40.0047 94.0474 40.1846C93.8707 40.3645 93.6357 40.5176 93.3423 40.6439C93.0488 40.7701 92.6908 40.8333 92.268 40.8333ZM92.4384 39.8295C92.8801 39.8295 93.2523 39.7427 93.5552 39.569C93.8612 39.3954 94.0915 39.1713 94.2461 38.8967C94.4039 38.6221 94.4828 38.3333 94.4828 38.0302V37.0075C94.4354 37.0643 94.3313 37.1164 94.1704 37.1637C94.0127 37.2079 93.8297 37.2474 93.6215 37.2821C93.4164 37.3137 93.2161 37.3421 93.0204 37.3673C92.828 37.3894 92.6718 37.4084 92.5519 37.4242C92.2617 37.462 91.9904 37.5236 91.738 37.6088C91.4887 37.6909 91.2868 37.8156 91.1322 37.9829C90.9808 38.147 90.9051 38.3711 90.9051 38.6552C90.9051 39.0435 91.0486 39.337 91.3357 39.5359C91.626 39.7316 91.9935 39.8295 92.4384 39.8295Z" fill="#2C4068"/>
<path d="M98.7549 39.0151L102.257 33.3901H103.544V40.6628H102.427V35.0378L98.9442 40.6628H97.6381V33.3901H98.7549V39.0151ZM101.519 30.9658H102.56C102.56 31.4772 102.383 31.8954 102.03 32.2206C101.676 32.5457 101.197 32.7083 100.591 32.7083C99.9948 32.7083 99.52 32.5457 99.1667 32.2206C98.8165 31.8954 98.6414 31.4772 98.6414 30.9658H99.6825C99.6825 31.212 99.7503 31.4283 99.886 31.6145C100.025 31.8007 100.26 31.8939 100.591 31.8939C100.922 31.8939 101.159 31.8007 101.301 31.6145C101.446 31.4283 101.519 31.212 101.519 30.9658Z" fill="#2C4068"/>
<path d="M110.455 36.5151V37.5567H106.442V36.5151H110.455ZM106.707 33.3901V40.6628H105.59V33.3901H106.707ZM111.306 33.3901V40.6628H110.19V33.3901H111.306Z" fill="#2C4068"/>
<path d="M117.511 35.9848V37.0264H113.27V35.9848H117.511Z" fill="#2C4068"/>
<path d="M119.476 40.6628V33.3901H120.593V36.5529H121.331L123.943 33.3901H125.382L122.448 36.8939L125.42 40.6628H123.981L121.596 37.5946H120.593V40.6628H119.476Z" fill="#2C4068"/>
<path d="M129.287 40.8143C128.631 40.8143 128.055 40.6581 127.56 40.3456C127.068 40.0331 126.683 39.5959 126.405 39.034C126.131 38.4721 125.994 37.8156 125.994 37.0643C125.994 36.3067 126.131 35.6454 126.405 35.0804C126.683 34.5154 127.068 34.0766 127.56 33.7641C128.055 33.4516 128.631 33.2954 129.287 33.2954C129.944 33.2954 130.518 33.4516 131.01 33.7641C131.505 34.0766 131.89 34.5154 132.165 35.0804C132.442 35.6454 132.581 36.3067 132.581 37.0643C132.581 37.8156 132.442 38.4721 132.165 39.034C131.89 39.5959 131.505 40.0331 131.01 40.3456C130.518 40.6581 129.944 40.8143 129.287 40.8143ZM129.287 39.8105C129.786 39.8105 130.196 39.6827 130.518 39.427C130.84 39.1713 131.078 38.8351 131.232 38.4185C131.387 38.0018 131.464 37.5504 131.464 37.0643C131.464 36.5782 131.387 36.1252 131.232 35.7054C131.078 35.2856 130.84 34.9463 130.518 34.6874C130.196 34.4286 129.786 34.2992 129.287 34.2992C128.789 34.2992 128.379 34.4286 128.057 34.6874C127.735 34.9463 127.497 35.2856 127.342 35.7054C127.188 36.1252 127.11 36.5782 127.11 37.0643C127.11 37.5504 127.188 38.0018 127.342 38.4185C127.497 38.8351 127.735 39.1713 128.057 39.427C128.379 39.6827 128.789 39.8105 129.287 39.8105Z" fill="#2C4068"/>
<path d="M139.151 36.5151V37.5567H135.138V36.5151H139.151ZM135.403 33.3901V40.6628H134.286V33.3901H135.403ZM140.003 33.3901V40.6628H138.886V33.3901H140.003Z" fill="#2C4068"/>
<path d="M144.995 40.8143C144.314 40.8143 143.727 40.6533 143.235 40.3314C142.743 40.0094 142.364 39.5659 142.099 39.0009C141.834 38.4358 141.702 37.7903 141.702 37.0643C141.702 36.3257 141.837 35.6738 142.109 35.1088C142.383 34.5406 142.765 34.0971 143.254 33.7783C143.746 33.4564 144.32 33.2954 144.976 33.2954C145.488 33.2954 145.948 33.3901 146.358 33.5795C146.768 33.7689 147.104 34.034 147.366 34.3749C147.628 34.7158 147.791 35.1136 147.854 35.5681H146.737C146.652 35.2367 146.462 34.9431 146.169 34.6874C145.879 34.4286 145.488 34.2992 144.995 34.2992C144.56 34.2992 144.178 34.4128 143.85 34.6401C143.525 34.8642 143.271 35.1814 143.088 35.5918C142.908 35.999 142.818 36.4772 142.818 37.0264C142.818 37.5883 142.907 38.0776 143.083 38.4942C143.263 38.9109 143.516 39.2345 143.841 39.4649C144.169 39.6953 144.554 39.8105 144.995 39.8105C145.286 39.8105 145.549 39.76 145.786 39.659C146.022 39.558 146.223 39.4128 146.387 39.2234C146.551 39.034 146.667 38.8067 146.737 38.5416H147.854C147.791 38.9709 147.634 39.3576 147.385 39.7016C147.139 40.0425 146.813 40.314 146.406 40.516C146.002 40.7149 145.532 40.8143 144.995 40.8143Z" fill="#2C4068"/>
<path d="M148.914 34.4317V33.3901H154.82V34.4317H152.435V40.6628H151.318V34.4317H148.914Z" fill="#2C4068"/>
<path d="M156.449 43.3901V33.3901H157.528V34.5454H157.66C157.743 34.4191 157.856 34.2581 158.001 34.0624C158.149 33.8636 158.361 33.6868 158.635 33.5321C158.913 33.3743 159.288 33.2954 159.762 33.2954C160.374 33.2954 160.913 33.4485 161.38 33.7547C161.847 34.0608 162.211 34.4949 162.473 35.0567C162.735 35.6186 162.866 36.2815 162.866 37.0454C162.866 37.8156 162.735 38.4832 162.473 39.0482C162.211 39.6101 161.849 40.0457 161.385 40.355C160.921 40.6612 160.386 40.8143 159.781 40.8143C159.314 40.8143 158.94 40.737 158.659 40.5823C158.378 40.4245 158.162 40.2461 158.011 40.0473C157.859 39.8452 157.743 39.6779 157.66 39.5454H157.566V43.3901H156.449ZM157.547 37.0264C157.547 37.5757 157.627 38.0602 157.788 38.48C157.949 38.8967 158.184 39.2234 158.493 39.4601C158.803 39.6937 159.181 39.8105 159.629 39.8105C160.096 39.8105 160.486 39.6874 160.798 39.4412C161.114 39.1918 161.35 38.8572 161.508 38.4374C161.669 38.0144 161.749 37.5441 161.749 37.0264C161.749 36.5151 161.67 36.0542 161.513 35.6439C161.358 35.2303 161.123 34.9036 160.808 34.6637C160.495 34.4207 160.102 34.2992 159.629 34.2992C159.175 34.2992 158.793 34.4144 158.484 34.6448C158.175 34.8721 157.941 35.1909 157.784 35.6012C157.626 36.0084 157.547 36.4835 157.547 37.0264Z" fill="#2C4068"/>
<path d="M165.029 43.3901C164.84 43.3901 164.671 43.3743 164.522 43.3427C164.374 43.3143 164.272 43.2859 164.215 43.2575L164.499 42.2726C164.77 42.3421 165.01 42.3673 165.218 42.3484C165.426 42.3295 165.611 42.2363 165.772 42.069C165.936 41.9049 166.086 41.6382 166.221 41.2689L166.43 40.7007L163.742 33.3901H164.953L166.96 39.1855H167.035L169.042 33.3901H170.253L167.168 41.7234C167.029 42.099 166.857 42.41 166.652 42.6562C166.447 42.9055 166.209 43.0902 165.937 43.2101C165.669 43.3301 165.366 43.3901 165.029 43.3901Z" fill="#2C4068"/>
<path d="M171.728 40.6628V33.3901H172.844V36.5529H173.583L176.195 33.3901H177.634L174.7 36.8939L177.672 40.6628H176.233L173.848 37.5946H172.844V40.6628H171.728Z" fill="#2C4068"/>
<path d="M178.469 34.4317V33.3901H184.375V34.4317H181.99V40.6628H180.873V34.4317H178.469Z" fill="#2C4068"/>
<path d="M188.58 40.8143C187.923 40.8143 187.348 40.6581 186.852 40.3456C186.36 40.0331 185.975 39.5959 185.698 39.034C185.423 38.4721 185.286 37.8156 185.286 37.0643C185.286 36.3067 185.423 35.6454 185.698 35.0804C185.975 34.5154 186.36 34.0766 186.852 33.7641C187.348 33.4516 187.923 33.2954 188.58 33.2954C189.236 33.2954 189.81 33.4516 190.302 33.7641C190.798 34.0766 191.183 34.5154 191.457 35.0804C191.735 35.6454 191.873 36.3067 191.873 37.0643C191.873 37.8156 191.735 38.4721 191.457 39.034C191.183 39.5959 190.798 40.0331 190.302 40.3456C189.81 40.6581 189.236 40.8143 188.58 40.8143ZM188.58 39.8105C189.078 39.8105 189.488 39.6827 189.81 39.427C190.132 39.1713 190.37 38.8351 190.525 38.4185C190.679 38.0018 190.757 37.5504 190.757 37.0643C190.757 36.5782 190.679 36.1252 190.525 35.7054C190.37 35.2856 190.132 34.9463 189.81 34.6874C189.488 34.4286 189.078 34.2992 188.58 34.2992C188.081 34.2992 187.671 34.4286 187.349 34.6874C187.027 34.9463 186.789 35.2856 186.635 35.7054C186.48 36.1252 186.403 36.5782 186.403 37.0643C186.403 37.5504 186.48 38.0018 186.635 38.4185C186.789 38.8351 187.027 39.1713 187.349 39.427C187.671 39.6827 188.081 39.8105 188.58 39.8105Z" fill="#2C4068"/>
<path d="M193.578 43.3901V33.3901H194.657V34.5454H194.79C194.872 34.4191 194.985 34.2581 195.131 34.0624C195.279 33.8636 195.49 33.6868 195.765 33.5321C196.042 33.3743 196.418 33.2954 196.891 33.2954C197.503 33.2954 198.043 33.4485 198.51 33.7547C198.976 34.0608 199.341 34.4949 199.603 35.0567C199.865 35.6186 199.995 36.2815 199.995 37.0454C199.995 37.8156 199.865 38.4832 199.603 39.0482C199.341 39.6101 198.978 40.0457 198.514 40.355C198.05 40.6612 197.516 40.8143 196.91 40.8143C196.443 40.8143 196.069 40.737 195.788 40.5823C195.508 40.4245 195.291 40.2461 195.14 40.0473C194.989 39.8452 194.872 39.6779 194.79 39.5454H194.695V43.3901H193.578ZM194.676 37.0264C194.676 37.5757 194.757 38.0602 194.918 38.48C195.078 38.8967 195.314 39.2234 195.623 39.4601C195.932 39.6937 196.311 39.8105 196.759 39.8105C197.225 39.8105 197.615 39.6874 197.927 39.4412C198.243 39.1918 198.48 38.8572 198.637 38.4374C198.798 38.0144 198.879 37.5441 198.879 37.0264C198.879 36.5151 198.8 36.0542 198.642 35.6439C198.487 35.2303 198.252 34.9036 197.937 34.6637C197.625 34.4207 197.232 34.2992 196.759 34.2992C196.304 34.2992 195.922 34.4144 195.613 34.6448C195.304 34.8721 195.071 35.1909 194.913 35.6012C194.755 36.0084 194.676 36.4835 194.676 37.0264Z" fill="#2C4068"/>
<path d="M204.671 42.7461V39.6211H205.277C205.425 39.4665 205.553 39.2992 205.66 39.1192C205.767 38.9393 205.861 38.7262 205.939 38.48C206.021 38.2307 206.091 37.9276 206.148 37.5709C206.204 37.2111 206.255 36.7771 206.299 36.2689L206.545 33.3901H211.164V39.6211H212.281V42.7461H211.164V40.6628H205.788V42.7461H204.671ZM206.545 39.6211H210.047V34.4317H207.586L207.397 36.2689C207.318 37.0296 207.22 37.694 207.104 38.2622C206.987 38.8304 206.801 39.2834 206.545 39.6211Z" fill="#2C4068"/>
<path d="M216.716 40.8143C216.06 40.8143 215.484 40.6581 214.989 40.3456C214.497 40.0331 214.112 39.5959 213.834 39.034C213.56 38.4721 213.423 37.8156 213.423 37.0643C213.423 36.3067 213.56 35.6454 213.834 35.0804C214.112 34.5154 214.497 34.0766 214.989 33.7641C215.484 33.4516 216.06 33.2954 216.716 33.2954C217.373 33.2954 217.947 33.4516 218.439 33.7641C218.934 34.0766 219.319 34.5154 219.594 35.0804C219.871 35.6454 220.01 36.3067 220.01 37.0643C220.01 37.8156 219.871 38.4721 219.594 39.034C219.319 39.5959 218.934 40.0331 218.439 40.3456C217.947 40.6581 217.373 40.8143 216.716 40.8143ZM216.716 39.8105C217.215 39.8105 217.625 39.6827 217.947 39.427C218.269 39.1713 218.507 38.8351 218.661 38.4185C218.816 38.0018 218.893 37.5504 218.893 37.0643C218.893 36.5782 218.816 36.1252 218.661 35.7054C218.507 35.2856 218.269 34.9463 217.947 34.6874C217.625 34.4286 217.215 34.2992 216.716 34.2992C216.218 34.2992 215.808 34.4286 215.486 34.6874C215.164 34.9463 214.926 35.2856 214.771 35.7054C214.617 36.1252 214.539 36.5782 214.539 37.0643C214.539 37.5504 214.617 38.0018 214.771 38.4185C214.926 38.8351 215.164 39.1713 215.486 39.427C215.808 39.6827 216.218 39.8105 216.716 39.8105Z" fill="#2C4068"/>
<path d="M226.201 33.3901V34.4317H222.832V40.6628H221.715V33.3901H226.201Z" fill="#2C4068"/>
<path d="M230.407 40.8143C229.751 40.8143 229.175 40.6581 228.68 40.3456C228.188 40.0331 227.803 39.5959 227.525 39.034C227.251 38.4721 227.113 37.8156 227.113 37.0643C227.113 36.3067 227.251 35.6454 227.525 35.0804C227.803 34.5154 228.188 34.0766 228.68 33.7641C229.175 33.4516 229.751 33.2954 230.407 33.2954C231.063 33.2954 231.638 33.4516 232.13 33.7641C232.625 34.0766 233.01 34.5154 233.284 35.0804C233.562 35.6454 233.701 36.3067 233.701 37.0643C233.701 37.8156 233.562 38.4721 233.284 39.034C233.01 39.5959 232.625 40.0331 232.13 40.3456C231.638 40.6581 231.063 40.8143 230.407 40.8143ZM230.407 39.8105C230.906 39.8105 231.316 39.6827 231.638 39.427C231.959 39.1713 232.198 38.8351 232.352 38.4185C232.507 38.0018 232.584 37.5504 232.584 37.0643C232.584 36.5782 232.507 36.1252 232.352 35.7054C232.198 35.2856 231.959 34.9463 231.638 34.6874C231.316 34.4286 230.906 34.2992 230.407 34.2992C229.909 34.2992 229.499 34.4286 229.177 34.6874C228.855 34.9463 228.617 35.2856 228.462 35.7054C228.308 36.1252 228.23 36.5782 228.23 37.0643C228.23 37.5504 228.308 38.0018 228.462 38.4185C228.617 38.8351 228.855 39.1713 229.177 39.427C229.499 39.6827 229.909 39.8105 230.407 39.8105Z" fill="#2C4068"/>
<path d="M235.406 40.6628V33.3901H238.378C239.16 33.3901 239.782 33.5668 240.242 33.9204C240.703 34.2739 240.933 34.7411 240.933 35.3219C240.933 35.7638 240.802 36.1063 240.54 36.3494C240.279 36.5892 239.943 36.7518 239.532 36.837C239.801 36.8749 240.061 36.9696 240.313 37.1211C240.569 37.2726 240.78 37.481 240.947 37.7461C241.115 38.0081 241.198 38.3301 241.198 38.712C241.198 39.0845 241.104 39.4175 240.914 39.7111C240.725 40.0047 240.454 40.2367 240.1 40.4071C239.747 40.5776 239.324 40.6628 238.832 40.6628H235.406ZM236.466 39.6401H238.832C239.217 39.6401 239.518 39.5485 239.736 39.3654C239.954 39.1824 240.062 38.933 240.062 38.6173C240.062 38.2417 239.954 37.9466 239.736 37.7319C239.518 37.5141 239.217 37.4052 238.832 37.4052H236.466V39.6401ZM236.466 36.4393H238.378C238.677 36.4393 238.935 36.3983 239.149 36.3162C239.364 36.231 239.528 36.111 239.641 35.9564C239.758 35.7985 239.816 35.6123 239.816 35.3976C239.816 35.0915 239.689 34.8516 239.433 34.6779C239.178 34.5012 238.826 34.4128 238.378 34.4128H236.466V36.4393Z" fill="#2C4068"/>
<path d="M245.842 40.8143C245.186 40.8143 244.61 40.6581 244.115 40.3456C243.622 40.0331 243.238 39.5959 242.96 39.034C242.685 38.4721 242.548 37.8156 242.548 37.0643C242.548 36.3067 242.685 35.6454 242.96 35.0804C243.238 34.5154 243.622 34.0766 244.115 33.7641C244.61 33.4516 245.186 33.2954 245.842 33.2954C246.498 33.2954 247.072 33.4516 247.565 33.7641C248.06 34.0766 248.445 34.5154 248.719 35.0804C248.997 35.6454 249.136 36.3067 249.136 37.0643C249.136 37.8156 248.997 38.4721 248.719 39.034C248.445 39.5959 248.06 40.0331 247.565 40.3456C247.072 40.6581 246.498 40.8143 245.842 40.8143ZM245.842 39.8105C246.34 39.8105 246.751 39.6827 247.072 39.427C247.394 39.1713 247.632 38.8351 247.787 38.4185C247.942 38.0018 248.019 37.5504 248.019 37.0643C248.019 36.5782 247.942 36.1252 247.787 35.7054C247.632 35.2856 247.394 34.9463 247.072 34.6874C246.751 34.4286 246.34 34.2992 245.842 34.2992C245.343 34.2992 244.933 34.4286 244.611 34.6874C244.29 34.9463 244.051 35.2856 243.897 35.7054C243.742 36.1252 243.665 36.5782 243.665 37.0643C243.665 37.5504 243.742 38.0018 243.897 38.4185C244.051 38.8351 244.29 39.1713 244.611 39.427C244.933 39.6827 245.343 39.8105 245.842 39.8105Z" fill="#2C4068"/>
<path d="M250.841 43.3901V33.3901H251.92V34.5454H252.052C252.134 34.4191 252.248 34.2581 252.393 34.0624C252.541 33.8636 252.752 33.6868 253.027 33.5321C253.305 33.3743 253.68 33.2954 254.153 33.2954C254.765 33.2954 255.305 33.4485 255.772 33.7547C256.239 34.0608 256.603 34.4949 256.865 35.0567C257.127 35.6186 257.258 36.2815 257.258 37.0454C257.258 37.8156 257.127 38.4832 256.865 39.0482C256.603 39.6101 256.24 40.0457 255.776 40.355C255.313 40.6612 254.778 40.8143 254.172 40.8143C253.705 40.8143 253.331 40.737 253.051 40.5823C252.77 40.4245 252.554 40.2461 252.402 40.0473C252.251 39.8452 252.134 39.6779 252.052 39.5454H251.957V43.3901H250.841ZM251.938 37.0264C251.938 37.5757 252.019 38.0602 252.18 38.48C252.341 38.8967 252.576 39.2234 252.885 39.4601C253.194 39.6937 253.573 39.8105 254.021 39.8105C254.488 39.8105 254.877 39.6874 255.19 39.4412C255.505 39.1918 255.742 38.8572 255.899 38.4374C256.06 38.0144 256.141 37.5441 256.141 37.0264C256.141 36.5151 256.062 36.0542 255.904 35.6439C255.75 35.2303 255.515 34.9036 255.199 34.6637C254.887 34.4207 254.494 34.2992 254.021 34.2992C253.566 34.2992 253.185 34.4144 252.875 34.6448C252.566 34.8721 252.333 35.1909 252.175 35.6012C252.017 36.0084 251.938 36.4835 251.938 37.0264Z" fill="#2C4068"/>
<path d="M261.914 40.8143C261.258 40.8143 260.682 40.6581 260.187 40.3456C259.695 40.0331 259.31 39.5959 259.032 39.034C258.758 38.4721 258.621 37.8156 258.621 37.0643C258.621 36.3067 258.758 35.6454 259.032 35.0804C259.31 34.5154 259.695 34.0766 260.187 33.7641C260.682 33.4516 261.258 33.2954 261.914 33.2954C262.571 33.2954 263.145 33.4516 263.637 33.7641C264.132 34.0766 264.517 34.5154 264.792 35.0804C265.069 35.6454 265.208 36.3067 265.208 37.0643C265.208 37.8156 265.069 38.4721 264.792 39.034C264.517 39.5959 264.132 40.0331 263.637 40.3456C263.145 40.6581 262.571 40.8143 261.914 40.8143ZM261.914 39.8105C262.413 39.8105 262.823 39.6827 263.145 39.427C263.467 39.1713 263.705 38.8351 263.859 38.4185C264.014 38.0018 264.091 37.5504 264.091 37.0643C264.091 36.5782 264.014 36.1252 263.859 35.7054C263.705 35.2856 263.467 34.9463 263.145 34.6874C262.823 34.4286 262.413 34.2992 261.914 34.2992C261.416 34.2992 261.006 34.4286 260.684 34.6874C260.362 34.9463 260.124 35.2856 259.969 35.7054C259.815 36.1252 259.737 36.5782 259.737 37.0643C259.737 37.5504 259.815 38.0018 259.969 38.4185C260.124 38.8351 260.362 39.1713 260.684 39.427C261.006 39.6827 261.416 39.8105 261.914 39.8105Z" fill="#2C4068"/>
<path d="M266.913 40.6628V33.3901H269.885C270.667 33.3901 271.289 33.5668 271.75 33.9204C272.21 34.2739 272.44 34.7411 272.44 35.3219C272.44 35.7638 272.31 36.1063 272.048 36.3494C271.786 36.5892 271.45 36.7518 271.04 36.837C271.308 36.8749 271.568 36.9696 271.821 37.1211C272.076 37.2726 272.287 37.481 272.455 37.7461C272.622 38.0081 272.705 38.3301 272.705 38.712C272.705 39.0845 272.611 39.4175 272.422 39.7111C272.232 40.0047 271.961 40.2367 271.608 40.4071C271.254 40.5776 270.831 40.6628 270.339 40.6628H266.913ZM267.973 39.6401H270.339C270.724 39.6401 271.025 39.5485 271.243 39.3654C271.461 39.1824 271.57 38.933 271.57 38.6173C271.57 38.2417 271.461 37.9466 271.243 37.7319C271.025 37.5141 270.724 37.4052 270.339 37.4052H267.973V39.6401ZM267.973 36.4393H269.885C270.185 36.4393 270.442 36.3983 270.656 36.3162C270.871 36.231 271.035 36.111 271.149 35.9564C271.265 35.7985 271.324 35.6123 271.324 35.3976C271.324 35.0915 271.196 34.8516 270.94 34.6779C270.685 34.5012 270.333 34.4128 269.885 34.4128H267.973V36.4393Z" fill="#2C4068"/>
<path d="M70.6223 25.5808H64.1338V7.74386H70.6759C72.517 7.74386 74.1019 8.10095 75.4306 8.81512C76.7593 9.52349 77.7811 10.5425 78.4961 11.8721C79.2171 13.2018 79.5775 14.7927 79.5775 16.6449C79.5775 18.5029 79.2171 20.0996 78.4961 21.4351C77.7811 22.7705 76.7533 23.7953 75.4127 24.5095C74.0781 25.2237 72.4813 25.5808 70.6223 25.5808ZM68.0037 22.3496H70.4614C71.6054 22.3496 72.5677 22.1522 73.3482 21.7573C74.1347 21.3567 74.7245 20.7383 75.1178 19.9022C75.517 19.0603 75.7166 17.9745 75.7166 16.6449C75.7166 15.3269 75.517 14.2498 75.1178 13.4137C74.7245 12.5776 74.1377 11.9621 73.3571 11.5673C72.5766 11.1725 71.6143 10.9751 70.4704 10.9751H68.0037V22.3496Z" fill="#2C4068"/>
<path d="M98.7609 16.6623C98.7609 18.6074 98.3826 20.2622 97.6259 21.6267C96.8751 22.9912 95.8503 24.0334 94.5514 24.7534C93.2585 25.4675 91.8047 25.8246 90.19 25.8246C88.5634 25.8246 87.1036 25.4646 85.8107 24.7447C84.5178 24.0247 83.4959 22.9824 82.7452 21.618C81.9945 20.2535 81.6191 18.6016 81.6191 16.6623C81.6191 14.7172 81.9945 13.0624 82.7452 11.6979C83.4959 10.3335 84.5178 9.29414 85.8107 8.57997C87.1036 7.85999 88.5634 7.5 90.19 7.5C91.8047 7.5 93.2585 7.85999 94.5514 8.57997C95.8503 9.29414 96.8751 10.3335 97.6259 11.6979C98.3826 13.0624 98.7609 14.7172 98.7609 16.6623ZM94.8374 16.6623C94.8374 15.4023 94.6438 14.3398 94.2565 13.4747C93.8752 12.6095 93.3359 11.9534 92.6388 11.5063C91.9417 11.0593 91.1254 10.8357 90.19 10.8357C89.2546 10.8357 88.4383 11.0593 87.7412 11.5063C87.0441 11.9534 86.5019 12.6095 86.1146 13.4747C85.7332 14.3398 85.5426 15.4023 85.5426 16.6623C85.5426 17.9223 85.7332 18.9848 86.1146 19.85C86.5019 20.7151 87.0441 21.3712 87.7412 21.8183C88.4383 22.2654 89.2546 22.4889 90.19 22.4889C91.1254 22.4889 91.9417 22.2654 92.6388 21.8183C93.3359 21.3712 93.8752 20.7151 94.2565 19.85C94.6438 18.9848 94.8374 17.9223 94.8374 16.6623Z" fill="#2C4068"/>
<path d="M113.261 13.5095C113.136 13.0856 112.96 12.7111 112.734 12.386C112.507 12.055 112.23 11.7763 111.903 11.5499C111.581 11.3176 111.212 11.1405 110.794 11.0186C110.383 10.8967 109.928 10.8357 109.427 10.8357C108.492 10.8357 107.669 11.0622 106.96 11.515C106.257 11.9679 105.709 12.6269 105.316 13.4921C104.923 14.3514 104.726 15.4023 104.726 16.6449C104.726 17.8874 104.92 18.9442 105.307 19.8151C105.694 20.6861 106.242 21.3509 106.951 21.8096C107.66 22.2625 108.498 22.4889 109.463 22.4889C110.339 22.4889 111.086 22.338 111.706 22.036C112.332 21.7283 112.808 21.2957 113.136 20.7383C113.47 20.1809 113.637 19.5219 113.637 18.7613L114.423 18.8745H109.704V16.0352H117.363V18.2823C117.363 19.85 117.024 21.197 116.345 22.3234C115.665 23.444 114.73 24.3092 113.538 24.9188C112.347 25.5227 110.982 25.8246 109.445 25.8246C107.729 25.8246 106.221 25.4559 104.923 24.7185C103.624 23.9753 102.611 22.9215 101.884 21.557C101.163 20.1867 100.802 18.561 100.802 16.6797C100.802 15.234 101.017 13.945 101.446 12.8127C101.881 11.6747 102.489 10.7109 103.269 9.92122C104.05 9.13157 104.958 8.53061 105.995 8.11837C107.032 7.70612 108.155 7.5 109.364 7.5C110.401 7.5 111.366 7.64806 112.26 7.94418C113.154 8.2345 113.946 8.64674 114.637 9.18092C115.335 9.7151 115.904 10.3509 116.345 11.0883C116.785 11.8199 117.068 12.6269 117.194 13.5095H113.261Z" fill="#2C4068"/>
<path d="M136.587 16.6623C136.587 18.6074 136.209 20.2622 135.452 21.6267C134.701 22.9912 133.676 24.0334 132.377 24.7534C131.085 25.4675 129.631 25.8246 128.016 25.8246C126.389 25.8246 124.93 25.4646 123.637 24.7447C122.344 24.0247 121.322 22.9824 120.571 21.618C119.821 20.2535 119.445 18.6016 119.445 16.6623C119.445 14.7172 119.821 13.0624 120.571 11.6979C121.322 10.3335 122.344 9.29414 123.637 8.57997C124.93 7.85999 126.389 7.5 128.016 7.5C129.631 7.5 131.085 7.85999 132.377 8.57997C133.676 9.29414 134.701 10.3335 135.452 11.6979C136.209 13.0624 136.587 14.7172 136.587 16.6623ZM132.663 16.6623C132.663 15.4023 132.47 14.3398 132.083 13.4747C131.701 12.6095 131.162 11.9534 130.465 11.5063C129.768 11.0593 128.952 10.8357 128.016 10.8357C127.081 10.8357 126.264 11.0593 125.567 11.5063C124.87 11.9534 124.328 12.6095 123.941 13.4747C123.559 14.3398 123.369 15.4023 123.369 16.6623C123.369 17.9223 123.559 18.9848 123.941 19.85C124.328 20.7151 124.87 21.3712 125.567 21.8183C126.264 22.2654 127.081 22.4889 128.016 22.4889C128.952 22.4889 129.768 22.2654 130.465 21.8183C131.162 21.3712 131.701 20.7151 132.083 19.85C132.47 18.9848 132.663 17.9223 132.663 16.6623Z" fill="#2C4068"/>
<path d="M141.225 7.74386L145.649 21.2957H145.819L150.252 7.74386H154.541L148.232 25.5808H143.245L136.926 7.74386H141.225Z" fill="#2C4068"/>
<path d="M172.029 16.6623C172.029 18.6074 171.651 20.2622 170.894 21.6267C170.143 22.9912 169.118 24.0334 167.82 24.7534C166.527 25.4675 165.073 25.8246 163.458 25.8246C161.831 25.8246 160.372 25.4646 159.079 24.7447C157.786 24.0247 156.764 22.9824 156.013 21.618C155.263 20.2535 154.887 18.6016 154.887 16.6623C154.887 14.7172 155.263 13.0624 156.013 11.6979C156.764 10.3335 157.786 9.29414 159.079 8.57997C160.372 7.85999 161.831 7.5 163.458 7.5C165.073 7.5 166.527 7.85999 167.82 8.57997C169.118 9.29414 170.143 10.3335 170.894 11.6979C171.651 13.0624 172.029 14.7172 172.029 16.6623ZM168.106 16.6623C168.106 15.4023 167.912 14.3398 167.525 13.4747C167.143 12.6095 166.604 11.9534 165.907 11.5063C165.21 11.0593 164.394 10.8357 163.458 10.8357C162.523 10.8357 161.706 11.0593 161.009 11.5063C160.312 11.9534 159.77 12.6095 159.383 13.4747C159.001 14.3398 158.811 15.4023 158.811 16.6623C158.811 17.9223 159.001 18.9848 159.383 19.85C159.77 20.7151 160.312 21.3712 161.009 21.8183C161.706 22.2654 162.523 22.4889 163.458 22.4889C164.394 22.4889 165.21 22.2654 165.907 21.8183C166.604 21.3712 167.143 20.7151 167.525 19.85C167.912 18.9848 168.106 17.9223 168.106 16.6623Z" fill="#2C4068"/>
<path d="M174.392 25.5808V7.74386H181.614C182.996 7.74386 184.176 7.98482 185.153 8.46675C186.136 8.94286 186.884 9.61929 187.396 10.496C187.915 11.367 188.174 12.3918 188.174 13.5705C188.174 14.7549 187.912 15.774 187.387 16.6275C186.863 17.4752 186.103 18.1255 185.108 18.5784C184.119 19.0313 182.922 19.2577 181.515 19.2577H176.68V16.2268H180.89C181.629 16.2268 182.242 16.1281 182.731 15.9307C183.219 15.7333 183.583 15.4372 183.821 15.0424C184.065 14.6475 184.188 14.1569 184.188 13.5705C184.188 12.9782 184.065 12.4789 183.821 12.0724C183.583 11.666 183.216 11.3583 182.722 11.1492C182.233 10.9344 181.617 10.827 180.872 10.827H178.262V25.5808H174.392ZM184.277 17.4636L188.826 25.5808H184.554L180.103 17.4636H184.277Z" fill="#2C4068"/>
<path d="M198.887 15.1904V18.1342H190.539V15.1904H198.887Z" fill="#2C4068"/>
<path d="M213.005 7.74386H216.875V19.3274C216.875 20.628 216.556 21.766 215.918 22.7415C215.287 23.7169 214.402 24.4776 213.264 25.0234C212.126 25.5633 210.8 25.8333 209.287 25.8333C207.768 25.8333 206.439 25.5633 205.301 25.0234C204.163 24.4776 203.278 23.7169 202.646 22.7415C202.015 21.766 201.699 20.628 201.699 19.3274V7.74386H205.569V19.0051C205.569 19.6845 205.721 20.2883 206.025 20.8167C206.335 21.3451 206.77 21.7602 207.33 22.0622C207.89 22.3641 208.542 22.515 209.287 22.515C210.038 22.515 210.69 22.3641 211.244 22.0622C211.804 21.7602 212.236 21.3451 212.54 20.8167C212.85 20.2883 213.005 19.6845 213.005 19.0051V7.74386Z" fill="#2C4068"/>
<path d="M229.485 12.8737C229.413 12.1712 229.106 11.6254 228.564 11.2363C228.022 10.8473 227.286 10.6528 226.357 10.6528C225.725 10.6528 225.192 10.7399 224.757 10.9141C224.322 11.0825 223.988 11.3176 223.756 11.6196C223.529 11.9215 223.416 12.2641 223.416 12.6473C223.404 12.9666 223.473 13.2453 223.622 13.4834C223.777 13.7214 223.988 13.9276 224.256 14.1017C224.524 14.2701 224.834 14.4182 225.186 14.5459C225.537 14.6679 225.913 14.7724 226.312 14.8595L227.956 15.2427C228.755 15.4169 229.488 15.6491 230.155 15.9394C230.822 16.2297 231.4 16.5868 231.889 17.0107C232.377 17.4345 232.756 17.9339 233.024 18.5087C233.298 19.0835 233.438 19.7425 233.444 20.4857C233.438 21.5773 233.152 22.5238 232.586 23.325C232.026 24.1205 231.216 24.7388 230.155 25.1801C229.1 25.6156 227.828 25.8333 226.339 25.8333C224.861 25.8333 223.574 25.6127 222.478 25.1714C221.387 24.7301 220.535 24.0769 219.922 23.2118C219.314 22.3409 218.995 21.2638 218.965 19.9806H222.71C222.752 20.5786 222.928 21.078 223.238 21.4786C223.553 21.8734 223.973 22.1725 224.498 22.3757C225.028 22.5731 225.627 22.6718 226.294 22.6718C226.949 22.6718 227.518 22.5789 228.001 22.3931C228.49 22.2073 228.868 21.9489 229.136 21.618C229.404 21.287 229.538 20.9067 229.538 20.477C229.538 20.0764 229.416 19.7396 229.172 19.4667C228.934 19.1939 228.582 18.9616 228.117 18.77C227.659 18.5784 227.095 18.4042 226.428 18.2474L224.435 17.7597C222.892 17.3939 221.673 16.822 220.78 16.0439C219.886 15.2659 219.442 14.2179 219.448 12.8998C219.442 11.8199 219.737 10.8764 220.333 10.0693C220.935 9.26221 221.76 8.63223 222.809 8.17934C223.857 7.72645 225.049 7.5 226.383 7.5C227.742 7.5 228.928 7.72645 229.941 8.17934C230.959 8.63223 231.752 9.26221 232.318 10.0693C232.884 10.8764 233.176 11.8112 233.194 12.8737H229.485Z" fill="#2C4068"/>
<path d="M235.544 25.5808V7.74386H239.413V22.4715H247.26V25.5808H235.544Z" fill="#2C4068"/>
<path d="M260.626 7.74386H264.496V19.3274C264.496 20.628 264.177 21.766 263.539 22.7415C262.908 23.7169 262.023 24.4776 260.885 25.0234C259.747 25.5633 258.421 25.8333 256.908 25.8333C255.388 25.8333 254.06 25.5633 252.922 25.0234C251.784 24.4776 250.899 23.7169 250.267 22.7415C249.636 21.766 249.32 20.628 249.32 19.3274V7.74386H253.19V19.0051C253.19 19.6845 253.342 20.2883 253.646 20.8167C253.955 21.3451 254.39 21.7602 254.95 22.0622C255.51 22.3641 256.163 22.515 256.908 22.515C257.658 22.515 258.311 22.3641 258.865 22.0622C259.425 21.7602 259.857 21.3451 260.161 20.8167C260.471 20.2883 260.626 19.6845 260.626 19.0051V7.74386Z" fill="#2C4068"/>
<path d="M279.313 13.5095C279.188 13.0856 279.012 12.7111 278.786 12.386C278.559 12.055 278.282 11.7763 277.955 11.5499C277.633 11.3176 277.263 11.1405 276.846 11.0186C276.435 10.8967 275.979 10.8357 275.479 10.8357C274.543 10.8357 273.721 11.0622 273.012 11.515C272.309 11.9679 271.761 12.6269 271.368 13.4921C270.974 14.3514 270.778 15.4023 270.778 16.6449C270.778 17.8874 270.971 18.9442 271.359 19.8151C271.746 20.6861 272.294 21.3509 273.003 21.8096C273.712 22.2625 274.549 22.4889 275.515 22.4889C276.39 22.4889 277.138 22.338 277.758 22.036C278.384 21.7283 278.86 21.2957 279.188 20.7383C279.522 20.1809 279.688 19.5219 279.688 18.7613L280.475 18.8745H275.756V16.0352H283.415V18.2823C283.415 19.85 283.076 21.197 282.396 22.3234C281.717 23.444 280.782 24.3092 279.59 24.9188C278.398 25.5227 277.034 25.8246 275.497 25.8246C273.781 25.8246 272.273 25.4559 270.974 24.7185C269.676 23.9753 268.663 22.9215 267.936 21.557C267.215 20.1867 266.854 18.561 266.854 16.6797C266.854 15.234 267.069 13.945 267.498 12.8127C267.933 11.6747 268.541 10.7109 269.321 9.92122C270.102 9.13157 271.01 8.53061 272.047 8.11837C273.084 7.70612 274.207 7.5 275.416 7.5C276.453 7.5 277.418 7.64806 278.312 7.94418C279.206 8.2345 279.998 8.64674 280.689 9.18092C281.386 9.7151 281.955 10.3509 282.396 11.0883C282.837 11.8199 283.12 12.6269 283.245 13.5095H279.313Z" fill="#2C4068"/>
<path d="M287.973 25.8072C287.383 25.8072 286.876 25.604 286.453 25.1975C286.036 24.7853 285.828 24.2918 285.828 23.7169C285.828 23.1479 286.036 22.6602 286.453 22.2538C286.876 21.8473 287.383 21.6441 287.973 21.6441C288.545 21.6441 289.045 21.8473 289.474 22.2538C289.903 22.6602 290.118 23.1479 290.118 23.7169C290.118 24.1002 290.016 24.4514 289.814 24.7708C289.617 25.0843 289.358 25.3369 289.036 25.5285C288.714 25.7143 288.36 25.8072 287.973 25.8072Z" fill="#2C4068"/>
<path d="M292.812 25.5808V7.74386H300.033C301.415 7.74386 302.595 7.98482 303.572 8.46675C304.555 8.94286 305.303 9.61929 305.815 10.496C306.334 11.367 306.593 12.3918 306.593 13.5705C306.593 14.7549 306.331 15.774 305.807 16.6275C305.282 17.4752 304.523 18.1255 303.528 18.5784C302.538 19.0313 301.341 19.2577 299.935 19.2577H295.1V16.2268H299.309C300.048 16.2268 300.662 16.1281 301.15 15.9307C301.639 15.7333 302.002 15.4372 302.241 15.0424C302.485 14.6475 302.607 14.1569 302.607 13.5705C302.607 12.9782 302.485 12.4789 302.241 12.0724C302.002 11.666 301.636 11.3583 301.141 11.1492C300.653 10.9344 300.036 10.827 299.291 10.827H296.682V25.5808H292.812ZM302.696 17.4636L307.245 25.5808H302.973L298.523 17.4636H302.696Z" fill="#2C4068"/>
<path d="M320.13 7.74386H324V19.3274C324 20.628 323.681 21.766 323.044 22.7415C322.412 23.7169 321.527 24.4776 320.389 25.0234C319.251 25.5633 317.926 25.8333 316.412 25.8333C314.893 25.8333 313.564 25.5633 312.426 25.0234C311.288 24.4776 310.403 23.7169 309.772 22.7415C309.14 21.766 308.824 20.628 308.824 19.3274V7.74386H312.694V19.0051C312.694 19.6845 312.846 20.2883 313.15 20.8167C313.46 21.3451 313.895 21.7602 314.455 22.0622C315.015 22.3641 315.668 22.515 316.412 22.515C317.163 22.515 317.815 22.3641 318.37 22.0622C318.93 21.7602 319.362 21.3451 319.666 20.8167C319.975 20.2883 320.13 19.6845 320.13 19.0051V7.74386Z" fill="#2C4068"/>
<g clip-path="url(#clip1_30102_692)">
<path fill-rule="evenodd" clip-rule="evenodd" d="M24.0815 25.5369L38.3996 30.9192C36.6203 36.9503 32.6098 42.5298 27.6322 46.3954C35.8086 43.975 41.8823 31.6913 42.8002 28.5797L26.1416 22.3174L23.3319 21.2615C22.8735 22.4326 22.3413 23.5661 21.7412 24.6568L24.0815 25.5369Z" fill="#2C4068"/>
<path fill-rule="evenodd" clip-rule="evenodd" d="M14.246 34.5885C13.9801 34.4885 13.8459 34.1931 13.9459 33.9283C14.0459 33.6636 14.3426 33.5298 14.6084 33.6291L27.7204 38.5584C27.9861 38.6583 28.1209 38.9536 28.02 39.2184C27.9204 39.4833 27.6233 39.617 27.358 39.5171L14.246 34.5885ZM11.1594 37.9441C10.8936 37.8447 10.7594 37.5494 10.8595 37.284C10.9594 37.0192 11.2562 36.8855 11.522 36.9853L24.6338 41.914C24.8997 42.014 25.0343 42.3093 24.9339 42.5741C24.8339 42.8389 24.5374 42.9732 24.2713 42.8733L11.1594 37.9441ZM7.1597 40.9569C6.89393 40.8575 6.75939 40.5616 6.85966 40.2968C6.95965 40.032 7.25641 39.8982 7.52228 39.9976L20.6341 44.9268C20.8999 45.0267 21.0342 45.3221 20.9342 45.5869C20.8342 45.8517 20.5374 45.9855 20.2716 45.8855L7.1597 40.9569ZM16.5412 30.9352C16.2754 30.8353 16.1409 30.5399 16.2409 30.2746C16.3413 30.0097 16.638 29.876 16.9038 29.9759L30.0154 34.9045C30.2811 35.0045 30.416 35.3004 30.3152 35.5652C30.2154 35.83 29.9189 35.9638 29.6531 35.8639L16.5412 30.9352ZM15.3265 25.4343C13.7019 29.5844 11.1548 33.2623 7.92334 36.2204C6.53639 37.4904 5.02326 38.6277 3.40336 39.6132C2.31573 40.2744 1.17998 40.8674 0.00146484 41.3855L20.9013 49.9559C27.6343 46.2776 32.6294 40.092 34.7957 32.7528L15.3265 25.4343Z" fill="#0000CD"/>
<path fill-rule="evenodd" clip-rule="evenodd" d="M32.0868 21.3639L46.4056 26.7462C44.6256 32.7773 40.6152 38.3572 35.6381 42.2229C43.8135 39.8025 49.8877 27.5188 50.8062 24.4072L41.4131 20.8765V11.9285L31.0605 5.97369L20.7078 0.0183105L10.3552 5.97369L0.00195312 11.9285V30.4311V37.5328C1.18047 37.0141 2.31622 36.4217 3.40385 35.7605C3.60328 35.6387 3.80146 35.5154 3.99754 35.3893V29.1688V14.2367L12.3527 9.43086L20.7078 4.62476L29.0629 9.43086L37.4179 14.2367V19.3742L34.1469 18.1449L31.3372 17.0887C30.879 18.2598 30.3464 19.3936 29.7467 20.4839L32.0868 21.3639Z" fill="#0000CD"/>
</g>
</g>
<defs>
<clipPath id="clip0_30102_692">
<rect width="324" height="50" fill="white"/>
</clipPath>
<clipPath id="clip1_30102_692">
<rect width="50.8072" height="49.9743" fill="white"/>
</clipPath>
</defs>
</svg>
