<svg width="384" height="60" viewBox="0 0 384 60" fill="none" xmlns="http://www.w3.org/2000/svg">
<g clip-path="url(#clip0_30106_1344)">
<path d="M86.1509 42.4249C86.1509 43.6364 85.9322 44.6833 85.4947 45.5658C85.0572 46.4482 84.4571 47.1288 83.6943 47.6074C82.9315 48.086 82.0603 48.3253 81.0806 48.3253C80.1009 48.3253 79.2297 48.086 78.4669 47.6074C77.7041 47.1288 77.104 46.4482 76.6665 45.5658C76.229 44.6833 76.0103 43.6364 76.0103 42.4249C76.0103 41.2134 76.229 40.1664 76.6665 39.2839C77.104 38.4015 77.7041 37.721 78.4669 37.2423C79.2297 36.7637 80.1009 36.5244 81.0806 36.5244C82.0603 36.5244 82.9315 36.7637 83.6943 37.2423C84.4571 37.721 85.0572 38.4015 85.4947 39.2839C85.9322 40.1664 86.1509 41.2134 86.1509 42.4249ZM84.8048 42.4249C84.8048 41.4302 84.6384 40.5908 84.3056 39.9065C83.9766 39.2222 83.5298 38.7044 82.9651 38.3529C82.4043 38.0014 81.7761 37.8257 81.0806 37.8257C80.3851 37.8257 79.7551 38.0014 79.1904 38.3529C78.6296 38.7044 78.1827 39.2222 77.8499 39.9065C77.5209 40.5908 77.3564 41.4302 77.3564 42.4249C77.3564 43.4195 77.5209 44.2589 77.8499 44.9432C78.1827 45.6275 78.6296 46.1454 79.1904 46.4968C79.7551 46.8483 80.3851 47.0241 81.0806 47.0241C81.7761 47.0241 82.4043 46.8483 82.9651 46.4968C83.5298 46.1454 83.9766 45.6275 84.3056 44.9432C84.6384 44.2589 84.8048 43.4195 84.8048 42.4249Z" fill="white"/>
<path d="M94.0762 43.255V44.4889H89.3199V43.255H94.0762ZM89.634 39.5532V48.1683H88.3103V39.5532H89.634ZM95.0857 39.5532V48.1683H93.7621V39.5532H95.0857Z" fill="white"/>
<path d="M96.7403 48.1683V46.9343H97.0544C97.3124 46.9343 97.5274 46.8838 97.6994 46.7829C97.8714 46.6782 98.0098 46.4968 98.1145 46.2388C98.2229 45.9771 98.3052 45.6144 98.3613 45.1507C98.4211 44.6833 98.4641 44.0888 98.4903 43.3671L98.6473 39.5532H104.391V48.1683H103.067V40.7871H99.9037L99.7691 43.8607C99.7392 44.5674 99.6756 45.19 99.5784 45.7284C99.4849 46.2631 99.3409 46.7118 99.1465 47.0745C98.9558 47.4372 98.7015 47.7102 98.3837 47.8934C98.0659 48.0766 97.6676 48.1683 97.189 48.1683H96.7403Z" fill="white"/>
<path d="M109.354 48.3702C108.809 48.3702 108.313 48.2673 107.868 48.0617C107.423 47.8523 107.07 47.5513 106.808 47.1587C106.546 46.7623 106.415 46.2837 106.415 45.7228C106.415 45.2293 106.513 44.8292 106.707 44.5225C106.902 44.2122 107.161 43.9691 107.487 43.7934C107.812 43.6177 108.171 43.4868 108.564 43.4008C108.96 43.311 109.358 43.24 109.758 43.1877C110.282 43.1203 110.706 43.0699 111.032 43.0362C111.361 42.9988 111.6 42.9371 111.749 42.8511C111.903 42.7651 111.979 42.6156 111.979 42.4024V42.3576C111.979 41.8042 111.828 41.3741 111.525 41.0675C111.226 40.7609 110.772 40.6076 110.162 40.6076C109.53 40.6076 109.035 40.746 108.676 41.0227C108.317 41.2994 108.064 41.5948 107.919 41.9089L106.662 41.4601C106.887 40.9367 107.186 40.5291 107.56 40.2374C107.937 39.942 108.349 39.7364 108.794 39.6205C109.242 39.5008 109.684 39.441 110.117 39.441C110.394 39.441 110.712 39.4746 111.071 39.5419C111.433 39.6055 111.783 39.7382 112.12 39.9402C112.46 40.1421 112.742 40.4468 112.967 40.8544C113.191 41.262 113.303 41.8079 113.303 42.4922V48.1683H111.979V47.0016H111.912C111.822 47.1886 111.673 47.3886 111.463 47.6018C111.254 47.8149 110.975 47.9963 110.628 48.1458C110.28 48.2954 109.856 48.3702 109.354 48.3702ZM109.556 47.1811C110.08 47.1811 110.521 47.0783 110.88 46.8726C111.243 46.667 111.516 46.4015 111.699 46.0762C111.886 45.7509 111.979 45.4087 111.979 45.0498V43.8383C111.923 43.9056 111.8 43.9673 111.609 44.0234C111.422 44.0757 111.205 44.1225 110.959 44.1636C110.716 44.201 110.478 44.2346 110.246 44.2645C110.018 44.2907 109.833 44.3132 109.691 44.3318C109.347 44.3767 109.025 44.4496 108.726 44.5506C108.431 44.6478 108.192 44.7955 108.008 44.9937C107.829 45.1881 107.739 45.4536 107.739 45.7901C107.739 46.2501 107.909 46.5978 108.25 46.8334C108.594 47.0652 109.029 47.1811 109.556 47.1811Z" fill="white"/>
<path d="M117.043 46.2164L121.193 39.5532H122.719V48.1683H121.395V41.505L117.267 48.1683H115.719V39.5532H117.043V46.2164ZM120.318 36.6815H121.552C121.552 37.2872 121.343 37.7827 120.924 38.1678C120.505 38.5529 119.937 38.7455 119.219 38.7455C118.512 38.7455 117.949 38.5529 117.531 38.1678C117.116 37.7827 116.908 37.2872 116.908 36.6815H118.142C118.142 36.9731 118.222 37.2293 118.383 37.4499C118.548 37.6705 118.826 37.7808 119.219 37.7808C119.612 37.7808 119.892 37.6705 120.06 37.4499C120.232 37.2293 120.318 36.9731 120.318 36.6815Z" fill="white"/>
<path d="M130.909 43.255V44.4889H126.153V43.255H130.909ZM126.467 39.5532V48.1683H125.143V39.5532H126.467ZM131.919 39.5532V48.1683H130.595V39.5532H131.919Z" fill="white"/>
<path d="M139.272 42.6268V43.8607H134.246V42.6268H139.272Z" fill="white"/>
<path d="M141.601 48.1683V39.5532H142.924V43.2998H143.799L146.896 39.5532H148.601L145.123 43.7037L148.645 48.1683H146.94L144.114 44.5338H142.924V48.1683H141.601Z" fill="white"/>
<path d="M153.229 48.3477C152.451 48.3477 151.769 48.1626 151.182 47.7925C150.599 47.4223 150.143 46.9044 149.813 46.2388C149.488 45.5733 149.326 44.7955 149.326 43.9056C149.326 43.0082 149.488 42.2248 149.813 41.5555C150.143 40.8862 150.599 40.3664 151.182 39.9963C151.769 39.6261 152.451 39.441 153.229 39.441C154.007 39.441 154.688 39.6261 155.271 39.9963C155.858 40.3664 156.314 40.8862 156.639 41.5555C156.968 42.2248 157.133 43.0082 157.133 43.9056C157.133 44.7955 156.968 45.5733 156.639 46.2388C156.314 46.9044 155.858 47.4223 155.271 47.7925C154.688 48.1626 154.007 48.3477 153.229 48.3477ZM153.229 47.1587C153.82 47.1587 154.306 47.0072 154.688 46.7044C155.069 46.4015 155.351 46.0033 155.534 45.5097C155.718 45.0161 155.809 44.4814 155.809 43.9056C155.809 43.3297 155.718 42.7932 155.534 42.2959C155.351 41.7985 155.069 41.3966 154.688 41.09C154.306 40.7834 153.82 40.63 153.229 40.63C152.638 40.63 152.152 40.7834 151.771 41.09C151.39 41.3966 151.107 41.7985 150.924 42.2959C150.741 42.7932 150.649 43.3297 150.649 43.9056C150.649 44.4814 150.741 45.0161 150.924 45.5097C151.107 46.0033 151.39 46.4015 151.771 46.7044C152.152 47.0072 152.638 47.1587 153.229 47.1587Z" fill="white"/>
<path d="M164.919 43.255V44.4889H160.163V43.255H164.919ZM160.477 39.5532V48.1683H159.154V39.5532H160.477ZM165.929 39.5532V48.1683H164.605V39.5532H165.929Z" fill="white"/>
<path d="M171.846 48.3477C171.039 48.3477 170.343 48.157 169.76 47.7756C169.176 47.3942 168.728 46.8689 168.414 46.1996C168.1 45.5303 167.942 44.7656 167.942 43.9056C167.942 43.0306 168.103 42.2585 168.425 41.5891C168.75 40.9161 169.203 40.3907 169.782 40.0131C170.365 39.6317 171.046 39.441 171.824 39.441C172.43 39.441 172.975 39.5532 173.462 39.7775C173.948 40.0019 174.346 40.316 174.656 40.7198C174.967 41.1236 175.159 41.5948 175.234 42.1332H173.91C173.809 41.7406 173.585 41.3928 173.237 41.09C172.893 40.7834 172.43 40.63 171.846 40.63C171.33 40.63 170.878 40.7647 170.489 41.0339C170.104 41.2994 169.803 41.6752 169.586 42.1612C169.373 42.6436 169.266 43.2101 169.266 43.8607C169.266 44.5263 169.371 45.1059 169.58 45.5994C169.793 46.093 170.093 46.4763 170.478 46.7492C170.867 47.0222 171.323 47.1587 171.846 47.1587C172.19 47.1587 172.502 47.0988 172.783 46.9792C173.063 46.8595 173.301 46.6875 173.495 46.4632C173.69 46.2388 173.828 45.9696 173.91 45.6555H175.234C175.159 46.1641 174.974 46.6221 174.679 47.0297C174.387 47.4335 174 47.7551 173.518 47.9944C173.039 48.23 172.482 48.3477 171.846 48.3477Z" fill="white"/>
<path d="M176.49 40.7871V39.5532H183.49V40.7871H180.663V48.1683H179.34V40.7871H176.49Z" fill="white"/>
<path d="M185.421 51.3989V39.5532H186.7V40.9217H186.857C186.954 40.7721 187.089 40.5814 187.261 40.3496C187.436 40.114 187.687 39.9046 188.012 39.7214C188.341 39.5345 188.786 39.441 189.347 39.441C190.072 39.441 190.712 39.6223 191.265 39.985C191.819 40.3477 192.25 40.8619 192.561 41.5275C192.871 42.193 193.026 42.9783 193.026 43.8831C193.026 44.7955 192.871 45.5863 192.561 46.2557C192.25 46.9212 191.82 47.4372 191.271 47.8037C190.721 48.1664 190.087 48.3477 189.369 48.3477C188.816 48.3477 188.373 48.2561 188.04 48.0729C187.707 47.8859 187.451 47.6747 187.272 47.4391C187.092 47.1998 186.954 47.0016 186.857 46.8446H186.745V51.3989H185.421ZM186.722 43.8607C186.722 44.5113 186.817 45.0853 187.008 45.5826C187.199 46.0762 187.477 46.4632 187.844 46.7436C188.21 47.0203 188.659 47.1587 189.19 47.1587C189.743 47.1587 190.205 47.0128 190.575 46.7212C190.949 46.4258 191.23 46.0294 191.417 45.5321C191.607 45.0311 191.703 44.4739 191.703 43.8607C191.703 43.255 191.609 42.709 191.422 42.2229C191.239 41.7331 190.96 41.3461 190.587 41.0619C190.216 40.774 189.751 40.63 189.19 40.63C188.652 40.63 188.199 40.7665 187.833 41.0395C187.466 41.3087 187.189 41.6864 187.003 42.1725C186.816 42.6548 186.722 43.2176 186.722 43.8607Z" fill="white"/>
<path d="M195.59 51.3989C195.365 51.3989 195.165 51.3802 194.989 51.3428C194.814 51.3092 194.692 51.2755 194.625 51.2419L194.961 50.0752C195.283 50.1575 195.567 50.1874 195.814 50.165C196.061 50.1426 196.279 50.0322 196.47 49.8341C196.665 49.6396 196.842 49.3237 197.003 48.8862L197.25 48.2131L194.064 39.5532H195.5L197.878 46.4183H197.968L200.346 39.5532H201.782L198.125 49.4246C197.96 49.8696 197.756 50.2379 197.513 50.5296C197.27 50.825 196.988 51.0437 196.666 51.1858C196.349 51.3279 195.99 51.3989 195.59 51.3989Z" fill="white"/>
<path d="M203.529 48.1683V39.5532H204.852V43.2998H205.727L208.824 39.5532H210.529L207.051 43.7037L210.573 48.1683H208.868L206.042 44.5338H204.852V48.1683H203.529Z" fill="white"/>
<path d="M211.519 40.7871V39.5532H218.518V40.7871H215.691V48.1683H214.368V40.7871H211.519Z" fill="white"/>
<path d="M223.502 48.3477C222.724 48.3477 222.042 48.1626 221.455 47.7925C220.871 47.4223 220.415 46.9044 220.086 46.2388C219.761 45.5733 219.598 44.7955 219.598 43.9056C219.598 43.0082 219.761 42.2248 220.086 41.5555C220.415 40.8862 220.871 40.3664 221.455 39.9963C222.042 39.6261 222.724 39.441 223.502 39.441C224.279 39.441 224.96 39.6261 225.543 39.9963C226.13 40.3664 226.587 40.8862 226.912 41.5555C227.241 42.2248 227.405 43.0082 227.405 43.9056C227.405 44.7955 227.241 45.5733 226.912 46.2388C226.587 46.9044 226.13 47.4223 225.543 47.7925C224.96 48.1626 224.279 48.3477 223.502 48.3477ZM223.502 47.1587C224.092 47.1587 224.579 47.0072 224.96 46.7044C225.341 46.4015 225.624 46.0033 225.807 45.5097C225.99 45.0161 226.082 44.4814 226.082 43.9056C226.082 43.3297 225.99 42.7932 225.807 42.2959C225.624 41.7985 225.341 41.3966 224.96 41.09C224.579 40.7834 224.092 40.63 223.502 40.63C222.911 40.63 222.425 40.7834 222.043 41.09C221.662 41.3966 221.38 41.7985 221.197 42.2959C221.013 42.7932 220.922 43.3297 220.922 43.9056C220.922 44.4814 221.013 45.0161 221.197 45.5097C221.38 46.0033 221.662 46.4015 222.043 46.7044C222.425 47.0072 222.911 47.1587 223.502 47.1587Z" fill="white"/>
<path d="M229.426 51.3989V39.5532H230.705V40.9217H230.862C230.959 40.7721 231.094 40.5814 231.266 40.3496C231.441 40.114 231.692 39.9046 232.017 39.7214C232.346 39.5345 232.791 39.441 233.352 39.441C234.078 39.441 234.717 39.6223 235.27 39.985C235.824 40.3477 236.256 40.8619 236.566 41.5275C236.876 42.193 237.032 42.9783 237.032 43.8831C237.032 44.7955 236.876 45.5863 236.566 46.2557C236.256 46.9212 235.826 47.4372 235.276 47.8037C234.726 48.1664 234.092 48.3477 233.375 48.3477C232.821 48.3477 232.378 48.2561 232.045 48.0729C231.713 47.8859 231.456 47.6747 231.277 47.4391C231.097 47.1998 230.959 47.0016 230.862 46.8446H230.75V51.3989H229.426ZM230.727 43.8607C230.727 44.5113 230.823 45.0853 231.013 45.5826C231.204 46.0762 231.483 46.4632 231.849 46.7436C232.215 47.0203 232.664 47.1587 233.195 47.1587C233.749 47.1587 234.21 47.0128 234.58 46.7212C234.954 46.4258 235.235 46.0294 235.422 45.5321C235.612 45.0311 235.708 44.4739 235.708 43.8607C235.708 43.255 235.614 42.709 235.427 42.2229C235.244 41.7331 234.966 41.3461 234.592 41.0619C234.221 40.774 233.756 40.63 233.195 40.63C232.657 40.63 232.204 40.7665 231.838 41.0395C231.471 41.3087 231.195 41.6864 231.008 42.1725C230.821 42.6548 230.727 43.2176 230.727 43.8607Z" fill="white"/>
<path d="M242.573 50.6361V46.9343H243.291C243.467 46.7511 243.618 46.5529 243.745 46.3398C243.872 46.1267 243.983 45.8743 244.076 45.5826C244.173 45.2872 244.256 44.9282 244.323 44.5057C244.39 44.0795 244.45 43.5653 244.502 42.9633L244.794 39.5532H250.268V46.9343H251.592V50.6361H250.268V48.1683H243.897V50.6361H242.573ZM244.794 46.9343H248.945V40.7871H246.028L245.804 42.9633C245.71 43.8644 245.594 44.6515 245.456 45.3246C245.318 45.9977 245.097 46.5342 244.794 46.9343Z" fill="white"/>
<path d="M256.849 48.3477C256.071 48.3477 255.389 48.1626 254.802 47.7925C254.218 47.4223 253.762 46.9044 253.433 46.2388C253.108 45.5733 252.945 44.7955 252.945 43.9056C252.945 43.0082 253.108 42.2248 253.433 41.5555C253.762 40.8862 254.218 40.3664 254.802 39.9963C255.389 39.6261 256.071 39.441 256.849 39.441C257.626 39.441 258.307 39.6261 258.89 39.9963C259.477 40.3664 259.934 40.8862 260.259 41.5555C260.588 42.2248 260.752 43.0082 260.752 43.9056C260.752 44.7955 260.588 45.5733 260.259 46.2388C259.934 46.9044 259.477 47.4223 258.89 47.7925C258.307 48.1626 257.626 48.3477 256.849 48.3477ZM256.849 47.1587C257.44 47.1587 257.926 47.0072 258.307 46.7044C258.688 46.4015 258.971 46.0033 259.154 45.5097C259.337 45.0161 259.429 44.4814 259.429 43.9056C259.429 43.3297 259.337 42.7932 259.154 42.2959C258.971 41.7985 258.688 41.3966 258.307 41.09C257.926 40.7834 257.44 40.63 256.849 40.63C256.258 40.63 255.772 40.7834 255.39 41.09C255.009 41.3966 254.727 41.7985 254.544 42.2959C254.36 42.7932 254.269 43.3297 254.269 43.9056C254.269 44.4814 254.36 45.0161 254.544 45.5097C254.727 46.0033 255.009 46.4015 255.39 46.7044C255.772 47.0072 256.258 47.1587 256.849 47.1587Z" fill="white"/>
<path d="M268.09 39.5532V40.7871H264.097V48.1683H262.773V39.5532H268.09Z" fill="white"/>
<path d="M273.075 48.3477C272.297 48.3477 271.615 48.1626 271.028 47.7925C270.444 47.4223 269.988 46.9044 269.659 46.2388C269.334 45.5733 269.171 44.7955 269.171 43.9056C269.171 43.0082 269.334 42.2248 269.659 41.5555C269.988 40.8862 270.444 40.3664 271.028 39.9963C271.615 39.6261 272.297 39.441 273.075 39.441C273.853 39.441 274.533 39.6261 275.117 39.9963C275.704 40.3664 276.16 40.8862 276.485 41.5555C276.814 42.2248 276.979 43.0082 276.979 43.9056C276.979 44.7955 276.814 45.5733 276.485 46.2388C276.16 46.9044 275.704 47.4223 275.117 47.7925C274.533 48.1626 273.853 48.3477 273.075 48.3477ZM273.075 47.1587C273.666 47.1587 274.152 47.0072 274.533 46.7044C274.915 46.4015 275.197 46.0033 275.38 45.5097C275.563 45.0161 275.655 44.4814 275.655 43.9056C275.655 43.3297 275.563 42.7932 275.38 42.2959C275.197 41.7985 274.915 41.3966 274.533 41.09C274.152 40.7834 273.666 40.63 273.075 40.63C272.484 40.63 271.998 40.7834 271.617 41.09C271.235 41.3966 270.953 41.7985 270.77 42.2959C270.587 42.7932 270.495 43.3297 270.495 43.9056C270.495 44.4814 270.587 45.0161 270.77 45.5097C270.953 46.0033 271.235 46.4015 271.617 46.7044C271.998 47.0072 272.484 47.1587 273.075 47.1587Z" fill="white"/>
<path d="M278.999 48.1683V39.5532H282.522C283.449 39.5532 284.186 39.7626 284.731 40.1813C285.277 40.6001 285.55 41.1535 285.55 41.8415C285.55 42.365 285.395 42.7707 285.085 43.0587C284.774 43.3428 284.376 43.5354 283.89 43.6364C284.208 43.6812 284.516 43.7934 284.816 43.9729C285.118 44.1524 285.369 44.3992 285.567 44.7132C285.765 45.0236 285.864 45.405 285.864 45.8574C285.864 46.2987 285.752 46.6931 285.528 47.0409C285.304 47.3886 284.982 47.6635 284.563 47.8654C284.144 48.0673 283.643 48.1683 283.06 48.1683H278.999ZM280.256 46.9568H283.06C283.516 46.9568 283.873 46.8483 284.131 46.6314C284.389 46.4146 284.518 46.1192 284.518 45.7453C284.518 45.3003 284.389 44.9507 284.131 44.6964C283.873 44.4384 283.516 44.3094 283.06 44.3094H280.256V46.9568ZM280.256 43.1652H282.522C282.877 43.1652 283.182 43.1166 283.436 43.0194C283.69 42.9184 283.885 42.7763 284.019 42.5931C284.157 42.4062 284.227 42.1856 284.227 41.9313C284.227 41.5686 284.075 41.2844 283.772 41.0787C283.469 40.8694 283.053 40.7647 282.522 40.7647H280.256V43.1652Z" fill="white"/>
<path d="M291.368 48.3477C290.59 48.3477 289.908 48.1626 289.321 47.7925C288.738 47.4223 288.281 46.9044 287.952 46.2388C287.627 45.5733 287.464 44.7955 287.464 43.9056C287.464 43.0082 287.627 42.2248 287.952 41.5555C288.281 40.8862 288.738 40.3664 289.321 39.9963C289.908 39.6261 290.59 39.441 291.368 39.441C292.146 39.441 292.826 39.6261 293.41 39.9963C293.997 40.3664 294.453 40.8862 294.778 41.5555C295.107 42.2248 295.272 43.0082 295.272 43.9056C295.272 44.7955 295.107 45.5733 294.778 46.2388C294.453 46.9044 293.997 47.4223 293.41 47.7925C292.826 48.1626 292.146 48.3477 291.368 48.3477ZM291.368 47.1587C291.959 47.1587 292.445 47.0072 292.826 46.7044C293.208 46.4015 293.49 46.0033 293.673 45.5097C293.856 45.0161 293.948 44.4814 293.948 43.9056C293.948 43.3297 293.856 42.7932 293.673 42.2959C293.49 41.7985 293.208 41.3966 292.826 41.09C292.445 40.7834 291.959 40.63 291.368 40.63C290.777 40.63 290.291 40.7834 289.91 41.09C289.528 41.3966 289.246 41.7985 289.063 42.2959C288.88 42.7932 288.788 43.3297 288.788 43.9056C288.788 44.4814 288.88 45.0161 289.063 45.5097C289.246 46.0033 289.528 46.4015 289.91 46.7044C290.291 47.0072 290.777 47.1587 291.368 47.1587Z" fill="white"/>
<path d="M297.292 51.3989V39.5532H298.571V40.9217H298.728C298.825 40.7721 298.96 40.5814 299.132 40.3496C299.308 40.114 299.558 39.9046 299.884 39.7214C300.213 39.5345 300.658 39.441 301.218 39.441C301.944 39.441 302.583 39.6223 303.137 39.985C303.69 40.3477 304.122 40.8619 304.432 41.5275C304.743 42.193 304.898 42.9783 304.898 43.8831C304.898 44.7955 304.743 45.5863 304.432 46.2557C304.122 46.9212 303.692 47.4372 303.142 47.8037C302.593 48.1664 301.959 48.3477 301.241 48.3477C300.687 48.3477 300.244 48.2561 299.912 48.0729C299.579 47.8859 299.323 47.6747 299.143 47.4391C298.964 47.1998 298.825 47.0016 298.728 46.8446H298.616V51.3989H297.292ZM298.594 43.8607C298.594 44.5113 298.689 45.0853 298.88 45.5826C299.07 46.0762 299.349 46.4632 299.715 46.7436C300.082 47.0203 300.53 47.1587 301.061 47.1587C301.615 47.1587 302.077 47.0128 302.447 46.7212C302.821 46.4258 303.101 46.0294 303.288 45.5321C303.479 45.0311 303.574 44.4739 303.574 43.8607C303.574 43.255 303.481 42.709 303.294 42.2229C303.111 41.7331 302.832 41.3461 302.458 41.0619C302.088 40.774 301.622 40.63 301.061 40.63C300.523 40.63 300.071 40.7665 299.704 41.0395C299.338 41.3087 299.061 41.6864 298.874 42.1725C298.687 42.6548 298.594 43.2176 298.594 43.8607Z" fill="white"/>
<path d="M310.417 48.3477C309.639 48.3477 308.957 48.1626 308.37 47.7925C307.786 47.4223 307.33 46.9044 307.001 46.2388C306.676 45.5733 306.513 44.7955 306.513 43.9056C306.513 43.0082 306.676 42.2248 307.001 41.5555C307.33 40.8862 307.786 40.3664 308.37 39.9963C308.957 39.6261 309.639 39.441 310.417 39.441C311.195 39.441 311.875 39.6261 312.458 39.9963C313.046 40.3664 313.502 40.8862 313.827 41.5555C314.156 42.2248 314.321 43.0082 314.321 43.9056C314.321 44.7955 314.156 45.5733 313.827 46.2388C313.502 46.9044 313.046 47.4223 312.458 47.7925C311.875 48.1626 311.195 48.3477 310.417 48.3477ZM310.417 47.1587C311.008 47.1587 311.494 47.0072 311.875 46.7044C312.257 46.4015 312.539 46.0033 312.722 45.5097C312.905 45.0161 312.997 44.4814 312.997 43.9056C312.997 43.3297 312.905 42.7932 312.722 42.2959C312.539 41.7985 312.257 41.3966 311.875 41.09C311.494 40.7834 311.008 40.63 310.417 40.63C309.826 40.63 309.34 40.7834 308.959 41.09C308.577 41.3966 308.295 41.7985 308.112 42.2959C307.928 42.7932 307.837 43.3297 307.837 43.9056C307.837 44.4814 307.928 45.0161 308.112 45.5097C308.295 46.0033 308.577 46.4015 308.959 46.7044C309.34 47.0072 309.826 47.1587 310.417 47.1587Z" fill="white"/>
<path d="M316.341 48.1683V39.5532H319.863C320.791 39.5532 321.527 39.7626 322.073 40.1813C322.619 40.6001 322.892 41.1535 322.892 41.8415C322.892 42.365 322.737 42.7707 322.427 43.0587C322.116 43.3428 321.718 43.5354 321.232 43.6364C321.55 43.6812 321.858 43.7934 322.157 43.9729C322.46 44.1524 322.711 44.3992 322.909 44.7132C323.107 45.0236 323.206 45.405 323.206 45.8574C323.206 46.2987 323.094 46.6931 322.87 47.0409C322.645 47.3886 322.324 47.6635 321.905 47.8654C321.486 48.0673 320.985 48.1683 320.402 48.1683H316.341ZM317.598 46.9568H320.402C320.858 46.9568 321.215 46.8483 321.473 46.6314C321.731 46.4146 321.86 46.1192 321.86 45.7453C321.86 45.3003 321.731 44.9507 321.473 44.6964C321.215 44.4384 320.858 44.3094 320.402 44.3094H317.598V46.9568ZM317.598 43.1652H319.863C320.219 43.1652 320.523 43.1166 320.778 43.0194C321.032 42.9184 321.226 42.7763 321.361 42.5931C321.499 42.4062 321.569 42.1856 321.569 41.9313C321.569 41.5686 321.417 41.2844 321.114 41.0787C320.811 40.8694 320.394 40.7647 319.863 40.7647H317.598V43.1652Z" fill="white"/>
<path d="M83.7003 30.3023H76.0103V9.17315H83.7639C85.9459 9.17315 87.8243 9.59615 89.3991 10.4421C90.9738 11.2813 92.1849 12.4883 93.0323 14.0634C93.8867 15.6385 94.3139 17.523 94.3139 19.7171C94.3139 21.9181 93.8867 23.8095 93.0323 25.3914C92.1849 26.9734 90.9667 28.1873 89.3779 29.0333C87.7961 29.8793 85.9036 30.3023 83.7003 30.3023ZM80.5968 26.4747H83.5097C84.8655 26.4747 86.006 26.2409 86.931 25.7732C87.8632 25.2986 88.5623 24.5661 89.0283 23.5756C89.5015 22.5783 89.738 21.2922 89.738 19.7171C89.738 18.1558 89.5015 16.8799 89.0283 15.8895C88.5623 14.8991 87.8667 14.17 86.9416 13.7023C86.0166 13.2346 84.8761 13.0008 83.5203 13.0008H80.5968V26.4747Z" fill="white"/>
<path d="M117.05 19.7377C117.05 22.0419 116.601 24.0021 115.705 25.6184C114.815 27.2347 113.6 28.4693 112.061 29.3222C110.528 30.1682 108.805 30.5912 106.892 30.5912C104.964 30.5912 103.234 30.1648 101.701 29.3119C100.169 28.459 98.958 27.2244 98.0682 25.6081C97.1784 23.9918 96.7336 22.035 96.7336 19.7377C96.7336 17.4336 97.1784 15.4734 98.0682 13.8571C98.958 12.2407 100.169 11.0096 101.701 10.1636C103.234 9.31071 104.964 8.88428 106.892 8.88428C108.805 8.88428 110.528 9.31071 112.061 10.1636C113.6 11.0096 114.815 12.2407 115.705 13.8571C116.601 15.4734 117.05 17.4336 117.05 19.7377ZM112.4 19.7377C112.4 18.2452 112.17 16.9865 111.711 15.9617C111.259 14.9369 110.62 14.1597 109.794 13.6301C108.968 13.1005 108 12.8357 106.892 12.8357C105.783 12.8357 104.816 13.1005 103.989 13.6301C103.163 14.1597 102.521 14.9369 102.062 15.9617C101.61 16.9865 101.384 18.2452 101.384 19.7377C101.384 21.2303 101.61 22.4889 102.062 23.5137C102.521 24.5386 103.163 25.3158 103.989 25.8454C104.816 26.375 105.783 26.6398 106.892 26.6398C108 26.6398 108.968 26.375 109.794 25.8454C110.62 25.3158 111.259 24.5386 111.711 23.5137C112.17 22.4889 112.4 21.2303 112.4 19.7377Z" fill="white"/>
<path d="M134.235 16.003C134.087 15.5009 133.879 15.0573 133.61 14.6721C133.342 14.2801 133.014 13.9499 132.625 13.6817C132.244 13.4066 131.806 13.1968 131.312 13.0523C130.824 12.9079 130.284 12.8357 129.691 12.8357C128.582 12.8357 127.608 13.1039 126.768 13.6404C125.934 14.1769 125.285 14.9575 124.819 15.9824C124.353 17.0003 124.12 18.2452 124.12 19.7171C124.12 21.189 124.349 22.4408 124.808 23.4725C125.267 24.5042 125.917 25.2917 126.757 25.8351C127.597 26.3715 128.589 26.6398 129.733 26.6398C130.772 26.6398 131.658 26.461 132.392 26.1033C133.134 25.7388 133.699 25.2264 134.087 24.5661C134.482 23.9058 134.68 23.1251 134.68 22.2241L135.612 22.3582H130.019V18.9949H139.097V21.6567C139.097 23.5137 138.695 25.1094 137.89 26.4438C137.085 27.7712 135.976 28.796 134.564 29.5182C133.151 30.2335 131.534 30.5912 129.712 30.5912C127.679 30.5912 125.892 30.1544 124.353 29.2809C122.813 28.4005 121.613 27.1522 120.751 25.5359C119.897 23.9127 119.469 21.9868 119.469 19.7584C119.469 18.0457 119.724 16.5188 120.232 15.1776C120.748 13.8295 121.468 12.6878 122.393 11.7524C123.318 10.817 124.395 10.1051 125.624 9.61678C126.852 9.12845 128.183 8.88428 129.617 8.88428C130.846 8.88428 131.99 9.05967 133.049 9.41044C134.108 9.75434 135.047 10.2427 135.866 10.8755C136.693 11.5082 137.367 12.2614 137.89 13.1349C138.412 14.0015 138.748 14.9575 138.896 16.003H134.235Z" fill="white"/>
<path d="M161.881 19.7377C161.881 22.0419 161.432 24.0021 160.535 25.6184C159.646 27.2347 158.431 28.4693 156.892 29.3222C155.359 30.1682 153.636 30.5912 151.723 30.5912C149.795 30.5912 148.065 30.1648 146.532 29.3119C145 28.459 143.789 27.2244 142.899 25.6081C142.009 23.9918 141.564 22.035 141.564 19.7377C141.564 17.4336 142.009 15.4734 142.899 13.8571C143.789 12.2407 145 11.0096 146.532 10.1636C148.065 9.31071 149.795 8.88428 151.723 8.88428C153.636 8.88428 155.359 9.31071 156.892 10.1636C158.431 11.0096 159.646 12.2407 160.535 13.8571C161.432 15.4734 161.881 17.4336 161.881 19.7377ZM157.231 19.7377C157.231 18.2452 157.001 16.9865 156.542 15.9617C156.09 14.9369 155.451 14.1597 154.625 13.6301C153.799 13.1005 152.831 12.8357 151.723 12.8357C150.614 12.8357 149.646 13.1005 148.82 13.6301C147.994 14.1597 147.351 14.9369 146.892 15.9617C146.44 16.9865 146.215 18.2452 146.215 19.7377C146.215 21.2303 146.44 22.4889 146.892 23.5137C147.351 24.5386 147.994 25.3158 148.82 25.8454C149.646 26.375 150.614 26.6398 151.723 26.6398C152.831 26.6398 153.799 26.375 154.625 25.8454C155.451 25.3158 156.09 24.5386 156.542 23.5137C157.001 22.4889 157.231 21.2303 157.231 19.7377Z" fill="white"/>
<path d="M167.377 9.17315L172.621 25.2264H172.822L178.076 9.17315H183.16L175.682 30.3023H169.771L162.282 9.17315H167.377Z" fill="white"/>
<path d="M203.886 19.7377C203.886 22.0419 203.438 24.0021 202.541 25.6184C201.651 27.2347 200.436 28.4693 198.897 29.3222C197.365 30.1682 195.642 30.5912 193.728 30.5912C191.8 30.5912 190.07 30.1648 188.538 29.3119C187.005 28.459 185.794 27.2244 184.904 25.6081C184.015 23.9918 183.57 22.035 183.57 19.7377C183.57 17.4336 184.015 15.4734 184.904 13.8571C185.794 12.2407 187.005 11.0096 188.538 10.1636C190.07 9.31071 191.8 8.88428 193.728 8.88428C195.642 8.88428 197.365 9.31071 198.897 10.1636C200.436 11.0096 201.651 12.2407 202.541 13.8571C203.438 15.4734 203.886 17.4336 203.886 19.7377ZM199.236 19.7377C199.236 18.2452 199.006 16.9865 198.547 15.9617C198.096 14.9369 197.456 14.1597 196.63 13.6301C195.804 13.1005 194.837 12.8357 193.728 12.8357C192.619 12.8357 191.652 13.1005 190.826 13.6301C189.999 14.1597 189.357 14.9369 188.898 15.9617C188.446 16.9865 188.22 18.2452 188.22 19.7377C188.22 21.2303 188.446 22.4889 188.898 23.5137C189.357 24.5386 189.999 25.3158 190.826 25.8454C191.652 26.375 192.619 26.6398 193.728 26.6398C194.837 26.6398 195.804 26.375 196.63 25.8454C197.456 25.3158 198.096 24.5386 198.547 23.5137C199.006 22.4889 199.236 21.2303 199.236 19.7377Z" fill="white"/>
<path d="M206.687 30.3023V9.17315H215.246C216.884 9.17315 218.282 9.45859 219.44 10.0295C220.605 10.5935 221.492 11.3947 222.099 12.4333C222.713 13.465 223.021 14.679 223.021 16.0752C223.021 17.4783 222.71 18.6854 222.088 19.6965C221.467 20.7006 220.567 21.471 219.387 22.0075C218.215 22.5439 216.796 22.8122 215.129 22.8122H209.399V19.2219H214.388C215.263 19.2219 215.991 19.105 216.57 18.8711C217.149 18.6373 217.58 18.2865 217.862 17.8188C218.152 17.3511 218.296 16.7699 218.296 16.0752C218.296 15.3737 218.152 14.7821 217.862 14.3007C217.58 13.8192 217.145 13.4547 216.559 13.2071C215.98 12.9526 215.249 12.8254 214.367 12.8254H211.274V30.3023H206.687ZM218.402 20.6869L223.794 30.3023H218.731L213.456 20.6869H218.402Z" fill="white"/>
<path d="M235.717 17.9942V21.4813H225.824V17.9942H235.717Z" fill="white"/>
<path d="M252.45 9.17315H257.037V22.8947C257.037 24.4354 256.659 25.7835 255.903 26.939C255.155 28.0945 254.106 28.9955 252.757 29.642C251.408 30.2817 249.837 30.6015 248.044 30.6015C246.243 30.6015 244.668 30.2817 243.319 29.642C241.971 28.9955 240.922 28.0945 240.173 26.939C239.425 25.7835 239.051 24.4354 239.051 22.8947V9.17315H243.637V22.513C243.637 23.3177 243.817 24.033 244.177 24.6589C244.545 25.2848 245.06 25.7766 245.724 26.1343C246.388 26.4919 247.161 26.6707 248.044 26.6707C248.933 26.6707 249.707 26.4919 250.363 26.1343C251.027 25.7766 251.539 25.2848 251.899 24.6589C252.266 24.033 252.45 23.3177 252.45 22.513V9.17315Z" fill="white"/>
<path d="M271.982 15.2498C271.897 14.4176 271.533 13.7711 270.891 13.3103C270.248 12.8494 269.376 12.619 268.274 12.619C267.526 12.619 266.894 12.7222 266.378 12.9285C265.863 13.128 265.467 13.4066 265.192 13.7642C264.924 14.1219 264.789 14.5277 264.789 14.9816C264.775 15.3599 264.857 15.69 265.033 15.972C265.217 16.254 265.467 16.4982 265.785 16.7045C266.103 16.904 266.47 17.0794 266.887 17.2307C267.303 17.3751 267.748 17.4989 268.221 17.6021L270.17 18.0561C271.117 18.2624 271.985 18.5375 272.776 18.8814C273.567 19.2253 274.252 19.6483 274.831 20.1504C275.41 20.6525 275.859 21.244 276.176 21.9249C276.501 22.6059 276.667 23.3865 276.674 24.2669C276.667 25.5599 276.328 26.6811 275.657 27.6302C274.993 28.5725 274.033 29.305 272.776 29.8277C271.526 30.3436 270.019 30.6015 268.253 30.6015C266.502 30.6015 264.977 30.3401 263.677 29.8174C262.385 29.2947 261.375 28.5209 260.648 27.4961C259.928 26.4644 259.55 25.1885 259.514 23.6685H263.953C264.002 24.3769 264.21 24.9684 264.578 25.443C264.952 25.9107 265.45 26.2649 266.071 26.5057C266.7 26.7395 267.409 26.8564 268.2 26.8564C268.977 26.8564 269.651 26.7464 270.223 26.5263C270.802 26.3062 271.251 26.0001 271.569 25.6081C271.886 25.216 272.045 24.7655 272.045 24.2566C272.045 23.782 271.901 23.3831 271.611 23.0598C271.329 22.7365 270.912 22.4614 270.361 22.2344C269.817 22.0075 269.15 21.8011 268.359 21.6154L265.997 21.0377C264.168 20.6044 262.724 19.9269 261.665 19.0052C260.605 18.0836 260.079 16.8421 260.086 15.2808C260.079 14.0015 260.429 12.8838 261.135 11.9278C261.848 10.9717 262.826 10.2255 264.069 9.689C265.312 9.15252 266.724 8.88428 268.306 8.88428C269.916 8.88428 271.321 9.15252 272.522 9.689C273.729 10.2255 274.669 10.9717 275.34 11.9278C276.01 12.8838 276.356 13.9912 276.378 15.2498H271.982Z" fill="white"/>
<path d="M279.163 30.3023V9.17315H283.749V26.6192H293.049V30.3023H279.163Z" fill="white"/>
<path d="M308.889 9.17315H313.476V22.8947C313.476 24.4354 313.098 25.7835 312.343 26.939C311.594 28.0945 310.545 28.9955 309.197 29.642C307.848 30.2817 306.277 30.6015 304.483 30.6015C302.682 30.6015 301.108 30.2817 299.759 29.642C298.41 28.9955 297.361 28.0945 296.613 26.939C295.864 25.7835 295.49 24.4354 295.49 22.8947V9.17315H300.077V22.513C300.077 23.3177 300.257 24.033 300.617 24.6589C300.984 25.2848 301.5 25.7766 302.163 26.1343C302.827 26.4919 303.6 26.6707 304.483 26.6707C305.373 26.6707 306.146 26.4919 306.803 26.1343C307.467 25.7766 307.979 25.2848 308.339 24.6589C308.706 24.033 308.889 23.3177 308.889 22.513V9.17315Z" fill="white"/>
<path d="M331.037 16.003C330.889 15.5009 330.681 15.0573 330.413 14.6721C330.144 14.2801 329.816 13.9499 329.427 13.6817C329.046 13.4066 328.608 13.1968 328.114 13.0523C327.627 12.9079 327.087 12.8357 326.493 12.8357C325.385 12.8357 324.41 13.1039 323.57 13.6404C322.737 14.1769 322.087 14.9575 321.621 15.9824C321.155 17.0003 320.922 18.2452 320.922 19.7171C320.922 21.189 321.151 22.4408 321.61 23.4725C322.069 24.5042 322.719 25.2917 323.559 25.8351C324.4 26.3715 325.392 26.6398 326.536 26.6398C327.574 26.6398 328.46 26.461 329.194 26.1033C329.936 25.7388 330.501 25.2264 330.889 24.5661C331.285 23.9058 331.482 23.1251 331.482 22.2241L332.414 22.3582H326.822V18.9949H335.899V21.6567C335.899 23.5137 335.497 25.1094 334.692 26.4438C333.887 27.7712 332.778 28.796 331.366 29.5182C329.954 30.2335 328.336 30.5912 326.514 30.5912C324.481 30.5912 322.694 30.1544 321.155 29.2809C319.615 28.4005 318.415 27.1522 317.553 25.5359C316.699 23.9127 316.272 21.9868 316.272 19.7584C316.272 18.0457 316.526 16.5188 317.034 15.1776C317.55 13.8295 318.27 12.6878 319.195 11.7524C320.12 10.817 321.197 10.1051 322.426 9.61678C323.655 9.12845 324.986 8.88428 326.419 8.88428C327.648 8.88428 328.792 9.05967 329.851 9.41044C330.91 9.75434 331.85 10.2427 332.669 10.8755C333.495 11.5082 334.169 12.2614 334.692 13.1349C335.214 14.0015 335.55 14.9575 335.698 16.003H331.037Z" fill="white"/>
<path d="M341.301 30.5706C340.602 30.5706 340.001 30.3298 339.5 29.8484C339.006 29.36 338.759 28.7754 338.759 28.0945C338.759 27.4204 339.006 26.8427 339.5 26.3612C340.001 25.8798 340.602 25.639 341.301 25.639C341.979 25.639 342.572 25.8798 343.08 26.3612C343.589 26.8427 343.843 27.4204 343.843 28.0945C343.843 28.5484 343.723 28.9645 343.483 29.3428C343.25 29.7142 342.943 30.0134 342.561 30.2404C342.18 30.4605 341.76 30.5706 341.301 30.5706Z" fill="white"/>
<path d="M347.036 30.3023V9.17315H355.595C357.233 9.17315 358.631 9.45859 359.789 10.0295C360.954 10.5935 361.841 11.3947 362.448 12.4333C363.062 13.465 363.369 14.679 363.369 16.0752C363.369 17.4783 363.059 18.6854 362.437 19.6965C361.816 20.7006 360.915 21.471 359.736 22.0075C358.564 22.5439 357.145 22.8122 355.478 22.8122H349.747V19.2219H354.737C355.612 19.2219 356.34 19.105 356.919 18.8711C357.498 18.6373 357.928 18.2865 358.211 17.8188C358.5 17.3511 358.645 16.7699 358.645 16.0752C358.645 15.3737 358.5 14.7821 358.211 14.3007C357.928 13.8192 357.494 13.4547 356.908 13.2071C356.329 12.9526 355.598 12.8254 354.715 12.8254H351.622V30.3023H347.036ZM358.751 20.6869L364.143 30.3023H359.079L353.804 20.6869H358.751Z" fill="white"/>
<path d="M379.413 9.17315H384V22.8947C384 24.4354 383.622 25.7835 382.867 26.939C382.118 28.0945 381.069 28.9955 379.721 29.642C378.372 30.2817 376.801 30.6015 375.007 30.6015C373.206 30.6015 371.632 30.2817 370.283 29.642C368.934 28.9955 367.885 28.0945 367.137 26.939C366.388 25.7835 366.014 24.4354 366.014 22.8947V9.17315H370.601V22.513C370.601 23.3177 370.781 24.033 371.141 24.6589C371.508 25.2848 372.023 25.7766 372.687 26.1343C373.351 26.4919 374.124 26.6707 375.007 26.6707C375.897 26.6707 376.67 26.4919 377.327 26.1343C377.991 25.7766 378.503 25.2848 378.863 24.6589C379.23 24.033 379.413 23.3177 379.413 22.513V9.17315Z" fill="white"/>
<g clip-path="url(#clip1_30106_1344)">
<path fill-rule="evenodd" clip-rule="evenodd" d="M28.5408 30.2664L45.5104 36.6455C43.4015 43.7934 38.6484 50.4061 32.7489 54.9876C42.4396 52.119 49.638 37.5605 50.7259 33.8727L30.9824 26.4507L27.6524 25.1992C27.109 26.5873 26.4783 27.9307 25.7671 29.2233L28.5408 30.2664Z" fill="#DFE2E8"/>
<path fill-rule="evenodd" clip-rule="evenodd" d="M16.8838 40.9939C16.5687 40.8754 16.4096 40.5253 16.5282 40.2115C16.6467 39.8977 16.9984 39.7392 17.3134 39.8569L32.8535 45.6989C33.1685 45.8173 33.3282 46.1674 33.2087 46.4812C33.0906 46.7951 32.7384 46.9537 32.424 46.8352L16.8838 40.9939ZM13.2257 44.9709C12.9107 44.8531 12.7516 44.5031 12.8702 44.1886C12.9887 43.8748 13.3404 43.7162 13.6554 43.8346L29.1954 49.676C29.5105 49.7945 29.67 50.1445 29.551 50.4584C29.4324 50.7722 29.0811 50.9314 28.7658 50.813L13.2257 44.9709ZM8.4853 48.5416C8.17031 48.4239 8.01086 48.0732 8.12969 47.7593C8.2482 47.4455 8.59991 47.2869 8.91502 47.4047L24.455 53.2467C24.77 53.3652 24.9291 53.7153 24.8106 54.029C24.6921 54.3429 24.3404 54.5014 24.0254 54.383L8.4853 48.5416ZM19.6041 36.6641C19.2891 36.5457 19.1297 36.1956 19.2482 35.8811C19.3672 35.5672 19.7189 35.4087 20.0338 35.5271L35.5735 41.3685C35.8885 41.487 36.0484 41.8376 35.9288 42.1515C35.8106 42.4653 35.4592 42.6239 35.1442 42.5055L19.6041 36.6641ZM18.1645 30.1445C16.2391 35.0632 13.2203 39.4221 9.39035 42.928C7.74656 44.4332 5.95322 45.7812 4.03334 46.9491C2.74429 47.7327 1.39823 48.4356 0.00146484 49.0496L24.7716 59.2072C32.7514 54.8476 38.6717 47.5166 41.2391 38.8183L18.1645 30.1445Z" fill="white"/>
<path fill-rule="evenodd" clip-rule="evenodd" d="M38.0285 25.3204L54.9989 31.6995C52.8892 38.8474 48.1361 45.4607 42.2374 50.0422C51.9267 47.1737 59.1258 32.6151 60.2144 28.9273L49.0818 24.7428V14.1378L36.8121 7.0802L24.5422 0.0219727L12.2724 7.0802L0.00195312 14.1378V36.0668V44.4836C1.39871 43.8689 2.74478 43.1668 4.03383 42.3831C4.27019 42.2388 4.50507 42.0926 4.73747 41.9431V34.5707V16.8734L14.6399 11.1776L24.5422 5.48147L34.4445 11.1776L44.3468 16.8734V22.9623L40.47 21.5054L37.14 20.2536C36.597 21.6415 35.9657 22.9853 35.255 24.2775L38.0285 25.3204Z" fill="#F8F9FA"/>
</g>
</g>
<defs>
<clipPath id="clip0_30106_1344">
<rect width="384" height="59.2288" fill="white"/>
</clipPath>
<clipPath id="clip1_30106_1344">
<rect width="60.2159" height="59.2288" fill="white"/>
</clipPath>
</defs>
</svg>
