<svg width="16" height="16" viewBox="0 0 16 16" fill="none" xmlns="http://www.w3.org/2000/svg">
<path d="M8.00016 8.66659C9.10473 8.66659 10.0002 7.77115 10.0002 6.66659C10.0002 5.56202 9.10473 4.66659 8.00016 4.66659C6.89559 4.66659 6.00016 5.56202 6.00016 6.66659M7.87508 10.8749H8.12508M7.87508 11.1249H8.12508M14.6668 7.99992C14.6668 11.6818 11.6821 14.6666 8.00016 14.6666C4.31826 14.6666 1.3335 11.6818 1.3335 7.99992C1.3335 4.31802 4.31826 1.33325 8.00016 1.33325C11.6821 1.33325 14.6668 4.31802 14.6668 7.99992ZM8.3335 10.9999C8.3335 11.184 8.18426 11.3333 8.00016 11.3333C7.81607 11.3333 7.66683 11.184 7.66683 10.9999C7.66683 10.8158 7.81607 10.6666 8.00016 10.6666C8.18426 10.6666 8.3335 10.8158 8.3335 10.9999Z" stroke="#68727D" stroke-width="1.5" stroke-linecap="round"/>
</svg>
