<svg display="none" xmlns="http://www.w3.org/2000/svg">

    <symbol id="arrow-top" viewBox="0 0 33 18">
        <path d="M31.5 16.5L16.5 1.5L1.5 16.5" stroke-width="3" stroke-linecap="round" stroke-linejoin="round" />
    </symbol>

    <symbol id="arrow-right" viewBox="0 0 24 24">
        <path d="M5 12H18M13 6L18.2929 11.2929C18.6834 11.6834 18.6834 12.3166 18.2929 12.7071L13 18"
            stroke-width="1.67" stroke-linecap="round" />
    </symbol>

    <symbol id="mail-icon" viewBox="0 0 24 24">
        <path
            d="M22 6C22 4.9 21.1 4 20 4H4C2.9 4 2 4.9 2 6M22 6V18C22 19.1 21.1 20 20 20H4C2.9 20 2 19.1 2 18V6M22 6L12 13L2 6"
            stroke-width="2" stroke-linecap="round" stroke-linejoin="round" />
    </symbol>

    <symbol id="home-icon" viewBox="0 0 16 16">
        <g>
            <path
                d="M0.666748 7.01707L6.99959 2.32688C7.58806 1.89104 8.4121 1.89104 9.00058 2.32688L15.3334 7.01707M3.11119 5.20667V12.4482C3.11119 13.3053 3.8408 14 4.74082 14H11.2593C12.1594 14 12.889 13.3053 12.889 12.4482V5.20667"
                stroke-width="1.5" stroke-linecap="round" />
        </g>
    </symbol>

    <symbol id="download-icon" viewBox="0 0 24 24">
        <path
            d="M11.165 20C11.165 20.4612 11.5388 20.835 12 20.835C12.4612 20.835 12.835 20.4612 12.835 20H12H11.165ZM12.835 12C12.835 11.5388 12.4612 11.165 12 11.165C11.5388 11.165 11.165 11.5388 11.165 12H12H12.835ZM9.59043 17.4096C9.26435 17.0835 8.73565 17.0835 8.40957 17.4096C8.08348 17.7357 8.08348 18.2643 8.40957 18.5904L9 18L9.59043 17.4096ZM13.1314 19.8686L13.7218 20.4591L13.7218 20.4591L13.1314 19.8686ZM15.5904 18.5904C15.9165 18.2643 15.9165 17.7357 15.5904 17.4096C15.2643 17.0835 14.7357 17.0835 14.4096 17.4096L15 18L15.5904 18.5904ZM11.691 20.5368L11.949 19.7427V19.7427L11.691 20.5368ZM12.309 20.5368L12.051 19.7427V19.7427L12.309 20.5368ZM17.9936 7.09873L18.1587 6.2802V6.2802L17.9936 7.09873ZM7.09873 6.00638L6.2802 5.84135L6.2802 5.84135L7.09873 6.00638ZM16.9013 6.00638L16.0827 6.17142V6.17142L16.9013 6.00638ZM6.00638 7.09873L5.84135 6.2802L5.84135 6.2802L6.00638 7.09873ZM18.6657 15.8188C18.2431 16.0034 18.0502 16.4957 18.2348 16.9183C18.4195 17.3408 18.9117 17.5337 19.3343 17.3491L19 16.584L18.6657 15.8188ZM4.66569 17.3491C5.08827 17.5337 5.58052 17.3408 5.76516 16.9183C5.94979 16.4957 5.75689 16.0034 5.33431 15.8188L5 16.584L4.66569 17.3491ZM12 20H12.835L12.835 12H12H11.165L11.165 20H12ZM9 18L8.40957 18.5904L10.2782 20.4591L10.8686 19.8686L11.4591 19.2782L9.59043 17.4096L9 18ZM13.1314 19.8686L13.7218 20.4591L15.5904 18.5904L15 18L14.4096 17.4096L12.5409 19.2782L13.1314 19.8686ZM10.8686 19.8686L10.2782 20.4591C10.4665 20.6473 10.6427 20.8245 10.8023 20.96C10.9693 21.1018 11.1722 21.2463 11.433 21.331L11.691 20.5368L11.949 19.7427C11.9814 19.7532 11.9711 19.7616 11.8831 19.6869C11.7876 19.6058 11.6668 19.4859 11.4591 19.2782L10.8686 19.8686ZM13.1314 19.8686L12.5409 19.2782C12.3332 19.4859 12.2124 19.6058 12.1169 19.6869C12.0289 19.7616 12.0186 19.7532 12.051 19.7427L12.309 20.5368L12.567 21.331C12.8278 21.2463 13.0307 21.1018 13.1977 20.96C13.3573 20.8245 13.5335 20.6473 13.7218 20.4591L13.1314 19.8686ZM11.691 20.5368L11.433 21.331C11.8015 21.4507 12.1985 21.4507 12.567 21.331L12.309 20.5368L12.051 19.7427C12.0179 19.7535 11.9822 19.7535 11.949 19.7427L11.691 20.5368ZM17.9936 7.09873L17.8286 7.91725C19.732 8.30103 21.165 9.9841 21.165 12H22H22.835C22.835 9.17348 20.8261 6.81803 18.1587 6.2802L17.9936 7.09873ZM7.09873 6.00638L7.91725 6.17142C8.30103 4.26803 9.9841 2.835 12 2.835V2V1.165C9.17348 1.165 6.81803 3.1739 6.2802 5.84135L7.09873 6.00638ZM12 2V2.835C14.0159 2.835 15.699 4.26803 16.0827 6.17142L16.9013 6.00638L17.7198 5.84135C17.182 3.1739 14.8265 1.165 12 1.165V2ZM2 12H2.835C2.835 9.9841 4.26803 8.30103 6.17142 7.91725L6.00638 7.09873L5.84135 6.2802C3.1739 6.81803 1.165 9.17348 1.165 12H2ZM22 12H21.165C21.165 13.7066 20.1384 15.1753 18.6657 15.8188L19 16.584L19.3343 17.3491C21.3934 16.4495 22.835 14.394 22.835 12H22ZM5 16.584L5.33431 15.8188C3.86157 15.1753 2.835 13.7066 2.835 12H2H1.165C1.165 14.394 2.60663 16.4495 4.66569 17.3491L5 16.584ZM7.09873 6.00638L6.2802 5.84135C6.23748 6.05323 6.05323 6.23748 5.84135 6.2802L6.00638 7.09873L6.17142 7.91725C7.04232 7.74166 7.74166 7.04232 7.91725 6.17142L7.09873 6.00638ZM17.9936 7.09873L18.1587 6.2802C17.9468 6.23748 17.7625 6.05323 17.7198 5.84135L16.9013 6.00638L16.0827 6.17142C16.2583 7.04232 16.9577 7.74166 17.8286 7.91725L17.9936 7.09873Z" />
    </symbol>

    <symbol id="edit-icon" viewBox="0 0 24 24">
        <path
            d="M5.01192 16.9642L5.80407 17.2282H5.80407L5.01192 16.9642ZM5.7611 14.7166L4.96895 14.4525H4.96895L5.7611 14.7166ZM6.53415 13.4658L7.12458 14.0562L7.12458 14.0562L6.53415 13.4658ZM14 5.99994L13.4096 5.40951V5.40951L14 5.99994ZM18 9.99994L18.5904 10.5904V10.5904L18 9.99994ZM10.5341 17.4658L9.94372 16.8753L9.94371 16.8753L10.5341 17.4658ZM9.28334 18.2388L9.54739 19.031H9.54739L9.28334 18.2388ZM7.03578 18.988L7.29983 19.7802H7.29983L7.03578 18.988ZM10.1241 17.8485L9.62124 17.1819L9.62123 17.1819L10.1241 17.8485ZM9.80904 18.0432L9.43771 17.2953L9.80904 18.0432ZM18.9636 7.11191L18.2154 7.48266V7.48266L18.9636 7.11191ZM18.9636 8.88797L18.2154 8.51722V8.51722L18.9636 8.88797ZM15.112 5.03633L15.4827 5.78451L15.4827 5.78451L15.112 5.03633ZM16.888 5.03633L16.5173 5.78451L16.5173 5.78451L16.888 5.03633ZM5.9567 14.1909L6.70459 14.5622L6.70459 14.5622L5.9567 14.1909ZM6.15142 13.8758L5.48483 13.373H5.48483L6.15142 13.8758ZM4.63922 18.7547L3.85273 19.0351L4.63922 18.7547ZM5.24525 19.3607L4.96479 20.1472H4.96479L5.24525 19.3607ZM13.5904 6.40954C13.2643 6.08345 12.7356 6.08345 12.4095 6.40954C12.0835 6.73563 12.0835 7.26432 12.4095 7.59041L13 6.99998L13.5904 6.40954ZM16.4095 11.5904C16.7356 11.9165 17.2643 11.9165 17.5904 11.5904C17.9165 11.2643 17.9165 10.7356 17.5904 10.4095L17 11L16.4095 11.5904ZM12 19.1649C11.5388 19.1649 11.165 19.5388 11.165 19.9999C11.165 20.4611 11.5388 20.8349 12 20.8349V19.9999V19.1649ZM19 20.8349C19.4611 20.8349 19.835 20.4611 19.835 19.9999C19.835 19.5388 19.4611 19.1649 19 19.1649V19.9999V20.8349ZM5.01192 16.9642L5.80407 17.2282L6.55326 14.9806L5.7611 14.7166L4.96895 14.4525L4.21977 16.7001L5.01192 16.9642ZM6.53415 13.4658L7.12458 14.0562L14.5904 6.59037L14 5.99994L13.4096 5.40951L5.94372 12.8753L6.53415 13.4658ZM18 9.99994L17.4096 9.40951L9.94372 16.8753L10.5341 17.4658L11.1246 18.0562L18.5904 10.5904L18 9.99994ZM9.28334 18.2388L9.01929 17.4467L6.77173 18.1959L7.03578 18.988L7.29983 19.7802L9.54739 19.031L9.28334 18.2388ZM10.5341 17.4658L9.94371 16.8753C9.72874 17.0903 9.6754 17.1411 9.62124 17.1819L10.1241 17.8485L10.627 18.5151C10.7953 18.3882 10.9411 18.2397 11.1246 18.0562L10.5341 17.4658ZM9.28334 18.2388L9.54739 19.031C9.79352 18.9489 9.99157 18.8849 10.1804 18.7911L9.80904 18.0432L9.43771 17.2953C9.37694 17.3255 9.30771 17.3505 9.01929 17.4467L9.28334 18.2388ZM10.1241 17.8485L9.62123 17.1819C9.5637 17.2253 9.50226 17.2633 9.43771 17.2953L9.80904 18.0432L10.1804 18.7911C10.3375 18.7131 10.487 18.6207 10.627 18.5151L10.1241 17.8485ZM18 5.99994L17.4096 6.59038C18.0025 7.1833 18.1459 7.3423 18.2154 7.48266L18.9636 7.11191L19.7118 6.74116C19.4899 6.29333 19.088 5.90709 18.5904 5.40951L18 5.99994ZM18 9.99994L18.5904 10.5904C19.088 10.0928 19.4899 9.70655 19.7118 9.25873L18.9636 8.88797L18.2154 8.51722C18.1459 8.65758 18.0025 8.81659 17.4096 9.40951L18 9.99994ZM18.9636 7.11191L18.2154 7.48266C18.3769 7.8086 18.3769 8.19128 18.2154 8.51722L18.9636 8.88797L19.7118 9.25873C20.1048 8.46556 20.1048 7.53432 19.7118 6.74116L18.9636 7.11191ZM14 5.99994L14.5904 6.59037C15.1833 5.99746 15.3424 5.85406 15.4827 5.78451L15.112 5.03633L14.7412 4.28816C14.2934 4.51007 13.9071 4.91193 13.4096 5.40951L14 5.99994ZM18 5.99994L18.5904 5.40951C18.0928 4.91193 17.7066 4.51007 17.2588 4.28816L16.888 5.03633L16.5173 5.78451C16.6576 5.85406 16.8166 5.99745 17.4096 6.59038L18 5.99994ZM15.112 5.03633L15.4827 5.78451C15.8087 5.62299 16.1913 5.62299 16.5173 5.78451L16.888 5.03633L17.2588 4.28816C16.4656 3.89511 15.5344 3.89511 14.7412 4.28816L15.112 5.03633ZM5.7611 14.7166L6.55326 14.9806C6.6494 14.6922 6.67442 14.623 6.70459 14.5622L5.9567 14.1909L5.20881 13.8196C5.11507 14.0084 5.051 14.2064 4.96895 14.4525L5.7611 14.7166ZM6.53415 13.4658L5.94372 12.8753C5.76026 13.0588 5.61177 13.2047 5.48483 13.373L6.15142 13.8758L6.81802 14.3787C6.85888 14.3245 6.90961 14.2712 7.12458 14.0562L6.53415 13.4658ZM5.9567 14.1909L6.70459 14.5622C6.73664 14.4977 6.77461 14.4362 6.81802 14.3787L6.15142 13.8758L5.48483 13.373C5.37921 13.513 5.2868 13.6625 5.20881 13.8196L5.9567 14.1909ZM5.01192 16.9642L4.21977 16.7001C4.06218 17.1729 3.92487 17.5822 3.84713 17.913C3.7723 18.2314 3.7101 18.6352 3.85273 19.0351L4.63922 18.7547L5.42571 18.4742C5.45249 18.5493 5.41379 18.5463 5.47285 18.295C5.529 18.0561 5.63596 17.7325 5.80407 17.2282L5.01192 16.9642ZM7.03578 18.988L6.77173 18.1959C6.26739 18.364 5.94387 18.4709 5.70492 18.5271C5.45359 18.5861 5.45062 18.5474 5.52571 18.5742L5.24525 19.3607L4.96479 20.1472C5.36476 20.2898 5.7685 20.2276 6.08694 20.1528C6.41777 20.0751 6.82707 19.9377 7.29983 19.7802L7.03578 18.988ZM4.63922 18.7547L3.85273 19.0351C4.03773 19.5539 4.44599 19.9622 4.96479 20.1472L5.24525 19.3607L5.52571 18.5742C5.47906 18.5576 5.44235 18.5209 5.42571 18.4742L4.63922 18.7547ZM13 6.99998L12.4095 7.59041L16.4095 11.5904L17 11L17.5904 10.4095L13.5904 6.40954L13 6.99998ZM12 19.9999V20.8349H19V19.9999V19.1649H12V19.9999Z" />
    </symbol>

    <symbol id="map-icon" viewBox="0 0 24 24">
        <path
            d="M20.2804 7.40041L16.2804 4.06707C15.5387 3.449 14.4613 3.449 13.7196 4.06707L10.2804 6.93313C9.53868 7.5512 8.46132 7.5512 7.71963 6.93313L4.64018 4.36692C3.98886 3.82415 3 4.2873 3 5.13514V15.0633C3 15.6569 3.26365 16.2198 3.71963 16.5998L7.71963 19.9331C8.09048 20.2422 8.54524 20.3967 9 20.3967M9 8.0001V20.0001M21 14.0001C21 16.2092 18 20.0001 17 20.0001C16 20.0001 13 16.2092 13 14.0001C13 11.791 14.7909 10.0001 17 10.0001C19.2091 10.0001 21 11.791 21 14.0001Z"
            stroke-width="2" stroke-linecap="round" />
    </symbol>

</svg>