<svg display="none" xmlns="http://www.w3.org/2000/svg">

    <symbol id="arrow-top" viewBox="0 0 33 18">
        <path d="M31.5 16.5L16.5 1.5L1.5 16.5" stroke-width="3" stroke-linecap="round" stroke-linejoin="round" />
    </symbol>

    <symbol id="arrow-right" viewBox="0 0 24 24">
        <path d="M5 12H18M13 6L18.2929 11.2929C18.6834 11.6834 18.6834 12.3166 18.2929 12.7071L13 18"
            stroke-width="1.67" stroke-linecap="round" />
    </symbol>

    <symbol id="mail-icon" viewBox="0 0 24 24">
        <path
            d="M22 6C22 4.9 21.1 4 20 4H4C2.9 4 2 4.9 2 6M22 6V18C22 19.1 21.1 20 20 20H4C2.9 20 2 19.1 2 18V6M22 6L12 13L2 6"
            stroke-width="2" stroke-linecap="round" stroke-linejoin="round" />
    </symbol>

    <symbol id="home-icon" viewBox="0 0 16 16">
        <g>
            <path
                d="M0.666748 7.01707L6.99959 2.32688C7.58806 1.89104 8.4121 1.89104 9.00058 2.32688L15.3334 7.01707M3.11119 5.20667V12.4482C3.11119 13.3053 3.8408 14 4.74082 14H11.2593C12.1594 14 12.889 13.3053 12.889 12.4482V5.20667"
                stroke-width="1.5" stroke-linecap="round" />
        </g>
    </symbol>


</svg>