<svg width="14" height="14" viewBox="0 0 14 14" fill="none" xmlns="http://www.w3.org/2000/svg">
<path d="M6.70492 1.18657C6.8301 0.937811 7.1699 0.93781 7.29508 1.18657L8.96292 4.5009C9.01119 4.59683 9.09918 4.66385 9.20111 4.68234L12.7229 5.32124C12.9873 5.36919 13.0923 5.70801 12.9053 5.90971L10.4143 8.59697C10.3422 8.67475 10.3086 8.7832 10.3233 8.89055L10.832 12.5997C10.8702 12.8781 10.5953 13.0875 10.3546 12.9634L7.14721 11.3099C7.05438 11.2621 6.94562 11.2621 6.85279 11.3099L3.64541 12.9634C3.40468 13.0875 3.12977 12.8781 3.16796 12.5997L3.67672 8.89055C3.69145 8.7832 3.65784 8.67475 3.58574 8.59697L1.09471 5.90971C0.907741 5.70802 1.01274 5.36919 1.27707 5.32124L4.79889 4.68234C4.90082 4.66385 4.98881 4.59683 5.03708 4.5009L6.70492 1.18657Z" fill="#E33B32"/>
</svg>
