<svg width="32" height="32" viewBox="0 0 32 32" fill="none" xmlns="http://www.w3.org/2000/svg">
<path d="M16 10.6667V16.0001L18.3092 17.3334M2.6665 16.0001C2.6665 23.3639 8.63604 29.3334 15.9998 29.3334C23.3636 29.3334 29.3332 23.3639 29.3332 16.0001C29.3332 8.63628 23.3636 2.66675 15.9998 2.66675M3.99984 4.00008H9.32876C9.32895 4.00008 9.32915 4.00014 9.32931 4.00025L9.32984 4.0006C9.33012 4.00079 9.33029 4.00111 9.33029 4.00145L9.33027 4.00258C9.33027 4.00284 9.33016 4.00309 9.32998 4.00327L4.00296 9.33029C4.00282 9.33043 4.00272 9.33061 4.00268 9.33081L4.00256 9.33143C4.00249 9.33176 4.0026 9.3321 4.00284 9.33234L4.00366 9.33313C4.00384 9.33331 4.00409 9.33341 4.00435 9.33341H9.33317" stroke="#0000CD" stroke-width="2" stroke-linecap="round"/>
</svg>
