<svg width="32" height="32" viewBox="0 0 32 32" fill="none" xmlns="http://www.w3.org/2000/svg">
<path d="M21.3335 5.33341C21.3335 6.80617 17.7518 8.00008 13.3335 8.00008C8.91522 8.00008 5.3335 6.80617 5.3335 5.33341M21.3335 5.33341C21.3335 3.86066 17.7518 2.66675 13.3335 2.66675C8.91522 2.66675 5.3335 3.86066 5.3335 5.33341M21.3335 5.33341V10.6667M5.3335 5.33341V10.6667C5.3335 12.1395 8.91522 13.3334 13.3335 13.3334C17.7518 13.3334 21.3335 12.1395 21.3335 10.6667M26.6668 13.1817C26.6668 14.6544 23.0851 15.8483 18.6668 15.8483C14.2486 15.8483 10.6668 14.6544 10.6668 13.1817V18.5151M26.6668 13.1817C26.6668 12.0206 24.4407 11.0328 21.3335 10.6667M26.6668 13.1817V18.5151C26.6668 19.9878 23.0851 21.1817 18.6668 21.1817C14.2486 21.1817 10.6668 19.9878 10.6668 18.5151M5.3335 21.03C5.3335 22.5027 8.91522 23.6967 13.3335 23.6967C17.7518 23.6967 21.3335 22.5027 21.3335 21.03V26.3634C21.3335 27.8361 17.7518 29.03 13.3335 29.03C8.91522 29.03 5.3335 27.8361 5.3335 26.3634V21.03ZM5.3335 21.03C5.3335 19.8689 7.55965 18.8811 10.6668 18.5151" stroke="#0000CD" stroke-width="2"/>
</svg>
